<?xml version="1.0" standalone="no"?>
<!DOCTYPE svg PUBLIC "-//W3C//DTD SVG 20010904//EN"
 "http://www.w3.org/TR/2001/REC-SVG-20010904/DTD/svg10.dtd">
<svg version="1.0" xmlns="http://www.w3.org/2000/svg"
 width="959.000000pt" height="959.000000pt" viewBox="0 0 959.000000 959.000000"
 preserveAspectRatio="xMidYMid meet">
<metadata>
Created by potrace 1.11, written by Peter Selinger 2001-2013
</metadata>
<g transform="translate(0.000000,959.000000) scale(0.100000,-0.100000)"
fill="#000000" stroke="none">
<path d="M5568 9205 c-2 -3 -150 -5 -329 -5 -328 -1 -471 -9 -634 -36 -65 -11
-102 -13 -131 -6 -36 8 -44 7 -58 -10 -9 -10 -14 -23 -11 -28 3 -5 -11 -21
-32 -35 -104 -71 -180 -131 -241 -192 -29 -29 -56 -53 -60 -53 -4 0 -24 -15
-43 -32 -65 -61 -156 -127 -183 -134 -14 -3 -31 -14 -36 -24 -8 -15 -17 -16
-67 -8 -32 5 -71 13 -88 19 -16 5 -70 14 -120 20 -49 6 -106 14 -125 19 -135
32 -304 61 -387 64 -40 2 -79 9 -88 16 -9 7 -22 9 -32 4 -10 -4 -45 -13 -78
-20 -55 -11 -62 -10 -81 8 -13 12 -23 15 -26 8 -2 -6 -30 -17 -63 -26 -38 -9
-67 -24 -80 -39 -23 -27 -69 -42 -79 -26 -8 13 11 53 30 64 8 4 14 15 14 22 0
38 -122 -5 -225 -79 -27 -20 -58 -36 -67 -36 -9 0 -29 -16 -44 -36 -23 -30
-26 -39 -16 -55 16 -24 15 -29 -3 -29 -8 0 -15 8 -16 18 0 10 -3 12 -6 5 -2
-7 -14 -13 -26 -14 -21 0 -21 -1 2 -10 20 -8 21 -12 10 -25 -7 -9 -38 -28 -68
-44 -31 -15 -67 -37 -80 -49 -13 -12 -29 -21 -35 -21 -6 0 -17 -9 -23 -19 -7
-11 -27 -22 -45 -26 -33 -8 -87 -41 -101 -62 -4 -6 -23 -17 -42 -23 -20 -7
-48 -29 -67 -53 -18 -23 -40 -49 -50 -58 -10 -9 -31 -45 -47 -80 -16 -35 -38
-75 -49 -89 -37 -47 -62 -101 -62 -133 0 -18 -7 -56 -14 -85 -8 -30 -12 -60
-9 -68 3 -8 0 -21 -7 -28 -9 -11 -7 -22 6 -48 9 -18 18 -34 19 -36 1 -2 23 17
49 41 25 24 43 47 40 50 -3 3 4 23 15 46 12 22 21 46 21 53 0 15 45 107 74
153 67 104 89 135 128 173 53 52 142 122 156 122 6 0 12 3 14 8 4 10 116 84
148 98 40 16 80 39 80 45 0 3 28 21 62 39 35 18 75 44 90 58 15 13 33 22 41
19 8 -3 18 -2 23 3 11 10 128 50 148 50 7 0 17 7 20 15 4 12 14 14 41 9 41 -7
95 11 95 34 0 11 -9 13 -40 9 -22 -3 -40 -1 -40 4 0 5 -16 9 -35 9 -38 0 -48
22 -17 39 18 10 146 7 198 -4 l31 -7 -34 -34 -34 -34 26 0 c14 0 25 4 25 9 0
5 12 11 28 13 15 2 26 8 24 16 -3 15 44 16 54 1 3 -6 16 -8 29 -5 12 3 37 1
54 -5 24 -8 35 -8 47 2 11 9 18 9 26 1 7 -7 44 -12 87 -12 42 0 111 -7 154
-15 43 -8 94 -15 114 -15 19 0 42 -7 50 -16 10 -10 24 -13 37 -9 41 13 116 17
170 11 l56 -7 0 -45 0 -44 93 5 c50 3 94 10 95 15 2 6 14 10 27 10 12 0 38 14
56 32 41 39 117 98 126 98 3 0 20 11 37 24 17 12 59 38 94 56 34 17 65 36 68
41 3 5 12 9 20 9 8 0 30 15 49 33 19 18 54 43 79 56 25 12 46 28 46 34 0 8 -3
9 -8 1 -9 -14 -42 -26 -42 -15 0 5 -13 14 -29 21 -22 9 -33 9 -48 -1 -13 -7
-33 -9 -56 -5 -50 9 -49 39 1 93 32 35 45 42 92 48 30 4 96 5 145 2 50 -3 155
-4 235 -3 150 1 310 0 415 -3 33 -1 204 -1 380 -1 176 -1 334 -3 350 -6 43 -8
117 -46 137 -69 10 -11 17 -35 18 -54 0 -29 2 -32 15 -21 13 11 24 9 63 -10
26 -13 52 -27 57 -32 71 -56 100 -77 139 -100 35 -21 46 -33 46 -52 0 -19 4
-23 19 -19 22 6 39 -16 21 -27 -22 -14 24 -22 56 -10 26 10 31 8 82 -45 30
-30 62 -55 71 -55 33 -1 102 -82 139 -162 12 -27 27 -48 32 -48 6 0 10 -6 10
-13 0 -23 32 -81 55 -102 13 -11 31 -44 41 -72 10 -29 21 -53 25 -53 4 0 12
-13 18 -30 5 -16 8 -30 5 -30 -18 0 -43 24 -54 50 -7 16 -16 30 -21 30 -5 0
-18 22 -30 49 -14 35 -28 51 -45 55 -15 4 -24 14 -24 26 0 11 -9 24 -20 30
-25 14 -79 98 -120 187 -18 40 -37 70 -41 67 -5 -3 -9 -1 -9 4 0 5 -11 7 -25
4 -31 -6 -32 -26 -2 -55 34 -32 97 -134 97 -157 0 -25 79 -154 122 -200 18
-19 46 -61 63 -93 17 -31 44 -72 61 -90 17 -17 34 -45 38 -62 4 -16 26 -47 49
-68 23 -21 42 -45 42 -53 0 -8 6 -19 14 -23 11 -7 9 -11 -8 -20 -11 -7 -21
-18 -21 -26 0 -15 38 -41 46 -32 3 3 17 -6 32 -20 17 -16 35 -23 49 -20 20 4
23 0 23 -24 0 -15 5 -40 12 -54 15 -34 1 -46 -22 -17 -21 26 -27 27 -46 7 -23
-22 -65 -18 -98 10 -16 14 -32 25 -36 25 -4 0 -13 14 -20 30 -18 43 -49 58
-67 34 -12 -16 -15 -17 -23 -4 -13 20 -13 50 0 50 5 0 12 11 16 25 9 36 -21
69 -48 54 -11 -6 -17 -17 -14 -25 7 -19 -28 -50 -65 -58 -22 -4 -30 -11 -27
-23 2 -11 12 -17 24 -16 14 1 26 -11 44 -44 13 -25 37 -62 52 -82 15 -20 31
-41 35 -46 5 -6 35 -42 69 -80 78 -91 104 -134 104 -177 0 -29 7 -42 40 -69
32 -27 40 -41 40 -68 0 -32 1 -33 18 -18 21 19 38 22 47 7 10 -16 -15 -40 -41
-40 -13 0 -24 -5 -24 -10 0 -6 20 -8 53 -4 43 5 56 3 76 -13 20 -17 22 -22 12
-41 -6 -12 -21 -22 -31 -22 -11 0 -20 -7 -20 -15 0 -19 19 -19 58 1 46 22 65
15 75 -28 5 -23 16 -40 28 -43 10 -4 19 -10 19 -14 0 -4 18 -16 40 -26 21 -10
50 -33 62 -51 13 -19 28 -34 34 -34 26 0 64 -42 64 -71 0 -28 2 -29 44 -29 40
0 45 3 55 30 5 17 14 30 20 30 8 0 51 81 51 96 0 2 -11 4 -24 4 -23 0 -51 -22
-40 -32 7 -8 -56 -29 -67 -22 -5 3 -6 16 -3 28 6 25 0 33 -56 69 -30 19 -35
29 -38 65 -3 39 -1 44 26 55 31 13 98 84 89 94 -3 3 -28 -8 -54 -24 -26 -16
-60 -33 -75 -36 -34 -9 -78 8 -78 30 0 9 -10 27 -22 40 -19 20 -20 27 -10 43
23 37 16 52 -22 45 -31 -6 -38 -3 -85 47 -28 29 -51 59 -51 66 0 18 42 56 124
110 93 60 153 68 197 26 16 -15 29 -33 29 -41 0 -16 32 -33 63 -33 31 0 38 -9
26 -31 -5 -11 -21 -19 -35 -19 -15 0 -36 -12 -52 -29 -15 -15 -49 -38 -77 -51
-109 -49 -100 -43 -76 -54 15 -6 29 -5 46 4 13 7 33 10 44 7 12 -3 19 -2 16 3
-6 10 45 20 106 20 47 0 48 1 51 33 3 31 5 32 40 29 33 -3 39 0 48 22 5 14 14
26 20 26 5 0 10 7 10 15 0 15 -21 19 -87 15 -30 -1 -33 1 -33 29 0 27 -4 31
-35 37 -26 5 -35 11 -35 26 0 18 4 19 38 13 20 -4 43 -11 49 -17 7 -6 21 -7
30 -3 10 5 22 7 27 6 20 -5 83 -12 129 -16 35 -3 50 0 54 11 7 19 20 18 45 -6
12 -11 28 -20 35 -20 7 0 13 -9 13 -19 0 -11 5 -23 10 -26 6 -3 10 3 10 14 0
11 -4 22 -9 25 -4 3 -11 22 -14 43 -7 43 2 53 50 53 33 0 103 28 103 41 0 4
-4 11 -10 14 -15 9 -242 26 -382 28 -71 1 -128 5 -128 8 0 10 -102 29 -155 29
-11 0 -49 -3 -84 -8 -55 -7 -67 -6 -82 9 -9 9 -31 20 -49 24 -18 4 -41 16 -51
26 -11 11 -37 26 -58 35 -44 17 -95 86 -86 115 6 17 -36 118 -62 149 -15 19
-95 171 -191 365 -41 82 -84 159 -95 171 -34 33 -65 76 -82 110 -8 17 -32 42
-52 56 -21 14 -63 48 -93 77 -30 28 -79 68 -109 88 -30 20 -63 45 -75 57 -30
30 -115 85 -141 92 -17 4 -22 11 -18 22 17 46 70 42 176 -12 l85 -44 6 24 c4
13 11 24 16 24 6 0 3 11 -5 24 -10 15 -30 27 -53 31 -20 4 -45 15 -55 26 -10
10 -26 19 -36 19 -10 0 -30 11 -45 25 -37 34 -76 43 -92 20 -21 -29 -81 -12
-100 28 -9 18 -31 43 -50 57 -42 28 -125 52 -138 39 -14 -13 -112 -11 -261 6
-147 17 -150 17 -157 10z m1472 -1235 c0 -11 -4 -20 -9 -20 -5 0 -11 9 -14 20
-3 13 0 20 9 20 8 0 14 -9 14 -20z m294 -544 c37 -22 73 -25 60 -5 -3 5 2 9
10 9 9 0 15 -3 14 -7 -1 -5 4 -19 11 -32 13 -23 12 -27 -20 -53 -18 -15 -42
-28 -54 -28 -11 0 -35 -14 -54 -30 l-33 -30 -28 20 c-37 26 -53 47 -45 60 11
18 -5 48 -30 54 -14 4 -25 13 -25 21 0 20 39 29 66 15 19 -11 27 -10 51 8 35
26 30 27 77 -2z"/>
<path d="M4938 8993 c7 -3 16 -2 19 1 4 3 -2 6 -13 5 -11 0 -14 -3 -6 -6z"/>
<path d="M6550 8860 c0 -5 5 -10 10 -10 6 0 10 5 10 10 0 6 -4 10 -10 10 -5 0
-10 -4 -10 -10z"/>
<path d="M6592 8810 c13 -20 38 -28 38 -12 0 12 -23 32 -37 32 -11 0 -11 -4
-1 -20z"/>
<path d="M5850 8795 c0 -22 38 -39 56 -24 11 9 12 15 3 25 -15 19 -59 18 -59
-1z"/>
<path d="M6055 8800 c-3 -5 1 -10 9 -10 9 0 16 5 16 10 0 6 -4 10 -9 10 -6 0
-13 -4 -16 -10z"/>
<path d="M5800 8750 c0 -5 10 -10 23 -10 18 0 19 2 7 10 -19 13 -30 13 -30 0z"/>
<path d="M4825 8735 c-22 -6 -66 -24 -98 -38 -32 -15 -61 -27 -66 -27 -5 0
-48 -18 -95 -40 -47 -22 -88 -40 -91 -40 -3 0 -34 -13 -68 -30 -35 -16 -68
-30 -73 -30 -5 -1 -22 -12 -39 -25 -30 -25 -30 -25 -7 -31 25 -7 29 -26 7 -44
-8 -7 -15 -19 -15 -28 0 -13 14 -14 96 -9 87 6 99 9 132 37 20 16 44 30 53 30
9 0 24 9 34 20 10 11 31 20 47 20 29 0 71 25 77 45 5 17 -60 4 -82 -16 -12
-10 -29 -19 -38 -19 -10 0 -30 -5 -46 -12 -31 -13 -123 -18 -123 -6 0 5 9 8
19 8 11 0 22 4 26 9 3 5 28 17 55 26 28 9 50 20 50 25 0 8 57 24 77 21 7 -1
21 7 32 18 12 12 27 17 39 14 11 -2 23 0 26 6 4 6 17 11 28 11 12 0 29 7 39
16 20 18 54 12 63 -12 3 -8 2 -13 -3 -9 -5 3 -24 -3 -41 -12 -24 -14 -34 -15
-37 -6 -3 10 -10 10 -24 2 -11 -5 -17 -14 -14 -19 3 -5 -4 -12 -16 -15 -15 -5
-18 -10 -10 -18 7 -7 18 -7 36 1 14 7 37 12 50 12 13 0 25 5 27 10 2 6 14 11
28 12 57 1 80 9 80 29 0 21 -10 25 -27 8 -7 -7 -9 4 -6 36 4 35 1 51 -12 66
-20 21 -32 22 -90 4z"/>
<path d="M5671 8725 c-27 -19 -31 -26 -18 -31 21 -8 72 17 72 35 0 24 -19 22
-54 -4z"/>
<path d="M4980 8690 c0 -5 5 -10 11 -10 5 0 7 5 4 10 -3 6 -8 10 -11 10 -2 0
-4 -4 -4 -10z"/>
<path d="M5882 8678 c7 -19 38 -22 38 -4 0 10 -9 16 -21 16 -12 0 -19 -5 -17
-12z"/>
<path d="M5565 8670 c-7 -11 -8 -11 23 -14 25 -3 30 9 6 18 -21 8 -22 8 -29
-4z"/>
<path d="M5440 8630 c0 -5 5 -10 11 -10 5 0 7 5 4 10 -3 6 -8 10 -11 10 -2 0
-4 -4 -4 -10z"/>
<path d="M5334 8615 c-4 -9 -3 -19 0 -23 9 -8 42 12 39 24 -4 16 -33 16 -39
-1z"/>
<path d="M5270 8565 c0 -13 -7 -15 -37 -9 l-38 6 22 -23 c22 -22 23 -22 43 -4
12 11 30 20 41 20 28 0 24 19 -6 23 -18 2 -25 -1 -25 -13z"/>
<path d="M5147 8511 c-3 -13 1 -21 14 -24 24 -6 34 9 19 28 -17 20 -27 19 -33
-4z"/>
<path d="M5088 8495 c-8 -18 -8 -29 -1 -36 17 -17 33 -1 33 32 0 36 -16 38
-32 4z"/>
<path d="M4905 8481 c-3 -6 -17 -11 -30 -11 -13 0 -26 -4 -30 -9 -14 -24 -172
-87 -237 -95 -57 -7 -128 -28 -128 -38 0 -5 -11 -8 -24 -8 -14 0 -31 -7 -40
-15 -8 -9 -19 -15 -23 -15 -4 1 -9 -3 -11 -9 -6 -18 31 -12 62 8 17 11 34 17
38 14 9 -5 41 6 106 35 21 9 36 11 45 5 6 -6 25 -13 41 -17 29 -7 29 -7 7 -22
-11 -8 -21 -22 -21 -30 0 -8 -7 -14 -16 -14 -8 0 -12 -4 -9 -10 17 -28 127 9
133 45 2 11 9 25 15 30 7 6 20 22 30 38 11 17 26 27 41 27 14 0 27 6 29 13 4
9 8 8 17 -3 9 -11 13 -12 17 -3 3 9 10 10 22 4 11 -6 26 -6 41 2 26 13 40 39
19 36 -31 -4 -45 2 -54 23 -11 25 -30 34 -40 19z"/>
<path d="M5280 8441 c0 -5 7 -11 14 -14 10 -4 13 -1 9 9 -6 15 -23 19 -23 5z"/>
<path d="M3665 8430 c-3 -5 -3 -15 1 -21 6 -11 23 6 24 24 0 10 -18 9 -25 -3z"/>
<path d="M6147 8433 c-4 -3 -7 -14 -7 -24 0 -11 -15 -24 -40 -35 -43 -19 -43
-19 -30 -49 7 -17 9 -17 9 -2 1 9 6 17 12 17 15 0 66 56 74 81 6 18 -5 26 -18
12z"/>
<path d="M5193 8402 c-32 -3 -68 -37 -57 -53 5 -8 94 35 95 46 1 10 -3 10 -38
7z"/>
<path d="M5591 8401 c-8 -5 -28 -7 -45 -4 -37 5 -68 -15 -70 -46 -1 -18 -21
-33 -95 -73 -83 -43 -146 -86 -189 -125 -7 -7 -16 -29 -19 -49 l-6 -37 33 19
c18 10 42 29 54 41 11 13 25 23 29 23 5 0 19 13 33 29 13 16 42 36 64 45 23 9
49 30 62 50 18 28 28 34 48 30 14 -2 32 0 39 5 13 8 11 13 -8 28 l-23 19 26
12 c22 10 26 9 26 -3 0 -20 54 -20 74 1 33 32 6 60 -33 35z"/>
<path d="M2677 8365 c-29 -21 -66 -36 -95 -41 -26 -3 -72 -17 -102 -29 -30
-13 -77 -30 -105 -39 -149 -45 -186 -85 -90 -97 28 -3 44 -7 37 -7 -7 -1 -34
-17 -60 -35 -26 -19 -65 -40 -87 -47 -47 -14 -102 -50 -154 -99 -52 -50 -82
-71 -111 -78 -36 -8 -51 -23 -48 -48 2 -20 -4 -31 -43 -74 -27 -30 -49 -81
-35 -81 6 0 17 5 23 11 5 5 55 35 109 65 92 50 102 54 146 48 37 -5 48 -11 48
-25 0 -16 -47 -59 -65 -59 -4 0 -25 -16 -47 -36 -26 -23 -47 -34 -59 -31 -14
4 -19 0 -19 -13 0 -10 -9 -22 -20 -25 -11 -4 -30 -26 -41 -51 -12 -24 -25 -42
-29 -39 -11 7 -40 -5 -40 -16 0 -25 91 8 118 43 15 20 135 103 194 134 56 29
78 47 78 62 0 18 90 102 117 108 13 4 30 3 39 0 11 -4 19 3 27 24 6 16 15 30
20 30 5 0 30 15 56 34 25 19 64 39 87 45 22 6 72 31 110 56 39 25 81 45 97 45
16 0 38 10 53 25 28 28 54 33 54 10 0 -24 34 -36 58 -20 11 8 32 14 46 13 21
-2 23 -5 13 -18 -21 -27 -41 -39 -64 -40 -12 0 -24 -4 -27 -9 -3 -5 -30 -20
-61 -35 -51 -24 -68 -47 -46 -61 11 -6 61 15 61 26 0 5 10 15 23 23 25 17 67
11 67 -10 0 -24 18 -15 47 24 15 20 31 39 36 40 4 2 7 15 7 28 0 24 11 37 59
73 18 13 22 23 16 40 -6 19 -13 22 -41 19 -35 -4 -44 8 -22 30 16 16 28 15 28
-3 0 -30 29 -14 64 35 19 27 47 57 61 66 14 9 25 19 25 23 0 14 -146 -1 -176
-19 -17 -9 -55 -25 -85 -35 -30 -10 -58 -24 -64 -31 -16 -21 -96 -42 -152 -41
l-51 1 56 24 c32 13 75 27 96 31 49 8 55 23 19 47 -80 53 -91 54 -156 9z"/>
<path d="M4124 8386 c-32 -24 -9 -29 33 -7 35 18 36 20 12 21 -14 0 -34 -6
-45 -14z"/>
<path d="M6195 8299 c-4 -6 -5 -13 -2 -16 7 -7 27 6 27 18 0 12 -17 12 -25 -2z"/>
<path d="M5921 8289 c-18 -7 -21 -12 -12 -23 16 -19 51 -8 51 15 0 21 -4 22
-39 8z"/>
<path d="M4173 8272 c-13 -4 -31 -14 -40 -22 -59 -50 -180 -51 -218 -2 -22 27
-51 -2 -46 -45 1 -7 -5 -13 -12 -13 -19 0 -31 -31 -16 -41 6 -3 50 -4 96 -1
63 4 87 2 93 -8 10 -16 -8 -70 -23 -70 -6 0 -7 -3 -4 -7 4 -3 21 7 38 23 28
26 38 29 120 34 95 6 115 16 104 49 -5 18 -14 21 -59 21 -61 0 -73 7 -47 29
15 14 47 63 39 60 -2 -1 -13 -4 -25 -7z"/>
<path d="M5800 8265 c-7 -8 -20 -15 -29 -15 -9 0 -22 -5 -28 -11 -5 -5 -25
-18 -44 -27 -25 -13 -34 -24 -34 -42 0 -21 4 -25 29 -23 16 1 32 6 35 11 3 5
19 15 34 23 16 8 36 28 45 44 21 36 31 45 49 38 7 -3 13 0 13 6 0 16 -56 13
-70 -4z"/>
<path d="M5989 8257 c-8 -7 -18 -20 -22 -29 -3 -10 -15 -18 -25 -18 -18 0 -82
-50 -82 -63 0 -12 28 -8 42 6 21 18 56 37 71 37 8 0 22 9 32 20 10 11 24 20
31 20 20 0 28 21 13 31 -19 12 -41 11 -60 -4z"/>
<path d="M6093 8263 c-21 -8 -15 -22 7 -16 11 3 20 9 20 14 0 10 -8 10 -27 2z"/>
<path d="M3661 8216 c-13 -16 -61 -27 -61 -15 0 5 -11 9 -25 9 -26 0 -35 -24
-12 -33 11 -4 110 -3 128 1 14 4 19 36 7 44 -18 11 -24 10 -37 -6z"/>
<path d="M3397 8213 c-11 -3 -17 -12 -15 -21 4 -16 9 -17 63 -8 11 2 25 4 30
5 12 2 -13 17 -40 24 -11 2 -28 2 -38 0z"/>
<path d="M6333 8180 c-13 -5 -23 -12 -23 -15 0 -8 53 6 65 16 12 12 -13 11
-42 -1z"/>
<path d="M4308 8143 c-10 -2 -18 -11 -18 -18 0 -19 27 -25 80 -17 31 5 46 12
48 25 3 14 -4 17 -45 16 -26 -1 -56 -3 -65 -6z"/>
<path d="M5560 8106 c0 -18 28 -41 38 -31 4 4 1 10 -5 12 -7 3 -13 11 -13 19
0 8 -4 14 -10 14 -5 0 -10 -6 -10 -14z"/>
<path d="M5761 8084 c-26 -14 -54 -21 -70 -18 -33 6 -74 -22 -51 -36 19 -12
96 -3 132 16 15 8 32 23 38 33 20 38 14 38 -49 5z"/>
<path d="M5136 8085 c-3 -8 -15 -15 -26 -15 -11 0 -20 -3 -21 -7 0 -5 -2 -18
-3 -31 -2 -13 0 -25 3 -27 14 -8 49 32 56 63 7 33 2 44 -9 17z"/>
<path d="M3288 8049 c-43 -41 -43 -41 -13 -34 42 9 95 44 95 61 0 27 -38 14
-82 -27z"/>
<path d="M3949 8033 c-8 -9 -29 -22 -46 -30 -35 -14 -42 -30 -18 -39 14 -6 13
-8 -2 -20 -16 -12 -15 -13 12 -14 41 0 59 14 61 47 1 15 3 31 3 35 1 4 10 10
21 13 11 3 20 11 20 16 0 15 -37 10 -51 -8z"/>
<path d="M3163 8009 c-34 -10 -43 -24 -20 -32 16 -5 55 13 61 29 6 16 4 16
-41 3z"/>
<path d="M5009 7982 c-13 -11 -37 -22 -52 -26 -16 -4 -27 -12 -24 -19 6 -20
46 -20 75 0 15 10 32 20 39 23 9 4 8 9 -1 23 -13 16 -14 16 -37 -1z"/>
<path d="M2825 7910 c-8 -13 5 -13 25 0 13 8 13 10 -2 10 -9 0 -20 -4 -23 -10z"/>
<path d="M3818 7903 c7 -3 16 -2 19 1 4 3 -2 6 -13 5 -11 0 -14 -3 -6 -6z"/>
<path d="M4882 7902 c-12 -2 -35 -19 -50 -38 -15 -19 -34 -34 -43 -34 -12 0
-15 -7 -11 -25 5 -26 42 -37 42 -12 1 6 20 21 43 33 23 11 42 27 42 35 0 8 9
14 20 14 11 0 20 6 20 14 0 15 -22 19 -63 13z"/>
<path d="M3626 7883 c-6 -14 -5 -15 5 -6 7 7 10 15 7 18 -3 3 -9 -2 -12 -12z"/>
<path d="M5195 7880 c-3 -5 -2 -10 4 -10 5 0 13 5 16 10 3 6 2 10 -4 10 -5 0
-13 -4 -16 -10z"/>
<path d="M6356 7851 c-48 -39 -82 -81 -64 -81 11 0 118 96 118 106 0 11 -21 1
-54 -25z"/>
<path d="M2335 7829 c-4 -6 -5 -13 -2 -16 7 -7 27 6 27 18 0 12 -17 12 -25 -2z"/>
<path d="M2275 7796 c-17 -12 -17 -16 -6 -30 13 -15 15 -15 32 0 38 34 14 60
-26 30z"/>
<path d="M5052 7784 c-30 -15 -56 -32 -59 -40 -3 -8 -16 -14 -29 -14 -17 0
-24 -6 -24 -20 0 -21 24 -28 35 -10 4 6 22 17 42 25 45 19 122 68 123 78 0 14
-35 6 -88 -19z"/>
<path d="M2784 7774 c-39 -26 -54 -42 -54 -56 0 -13 33 -9 49 7 9 8 26 23 39
35 22 20 29 40 13 40 -4 0 -26 -12 -47 -26z"/>
<path d="M6647 7738 c-23 -25 -58 -52 -78 -61 -19 -9 -47 -28 -63 -42 -15 -14
-33 -25 -41 -25 -24 0 -84 -44 -85 -62 0 -9 -5 -20 -10 -23 -6 -4 -8 -11 -5
-16 3 -5 -1 -6 -9 -3 -9 3 -13 10 -10 15 3 5 -2 9 -10 9 -9 0 -16 -4 -16 -9 0
-17 -49 -63 -59 -56 -17 10 -13 23 11 31 21 6 21 7 3 20 -23 17 -35 17 -58 0
-17 -13 -17 -15 1 -47 18 -32 62 -53 62 -30 0 6 13 11 28 11 16 0 37 7 48 15
10 8 27 15 37 15 10 0 22 11 27 25 11 28 13 29 38 14 13 -8 28 -5 65 17 42 23
48 30 44 52 -6 29 35 71 70 72 12 0 34 10 50 23 15 13 36 26 46 30 24 9 21 20
-14 46 l-31 23 -41 -44z"/>
<path d="M6245 7753 c-34 -9 -57 -35 -50 -60 4 -16 1 -23 -8 -23 -16 0 -47
-32 -47 -48 0 -22 21 -12 69 33 32 30 50 56 53 75 3 17 4 29 4 29 -1 -1 -10
-4 -21 -6z"/>
<path d="M4728 7733 c7 -3 16 -2 19 1 4 3 -2 6 -13 5 -11 0 -14 -3 -6 -6z"/>
<path d="M2572 7715 c-28 -15 -56 -44 -65 -67 -3 -10 -13 -18 -21 -18 -8 0
-25 -14 -37 -31 -12 -17 -37 -38 -56 -46 -37 -15 -40 -36 -6 -41 14 -2 30 8
50 32 15 20 35 36 44 36 20 0 49 31 49 54 0 9 12 24 28 33 33 19 69 63 50 62
-7 -1 -23 -7 -36 -14z"/>
<path d="M1564 7655 c-3 -8 0 -30 6 -50 10 -30 9 -39 -2 -53 -21 -24 -39 -91
-38 -137 1 -22 1 -47 0 -55 -5 -58 13 -466 21 -476 8 -10 24 -288 20 -349 -1
-11 -1 -50 -1 -87 1 -37 -4 -75 -11 -86 -10 -16 -10 -38 0 -108 14 -100 27
-133 44 -114 8 7 12 54 12 133 0 73 4 122 10 122 10 0 11 -5 19 -80 11 -120
29 -208 46 -222 12 -11 16 -27 14 -55 -2 -35 8 -64 34 -98 7 -10 32 34 32 57
0 18 8 27 30 34 17 6 30 14 30 17 -1 20 -21 33 -53 35 -44 4 -57 15 -36 30 9
7 18 19 22 27 4 12 6 11 6 -2 1 -11 9 -18 20 -18 16 0 20 10 26 65 4 36 5 68
2 71 -4 5 -34 9 -58 9 0 0 -3 92 -5 205 -5 203 -5 205 -29 227 -25 22 -34 67
-15 78 6 3 10 26 10 51 0 26 -4 43 -10 39 -13 -8 -28 56 -33 145 -3 41 -6 80
-7 85 -2 6 0 18 5 29 5 11 3 26 -3 37 -7 11 -12 62 -12 127 0 74 -4 114 -13
127 -14 20 -47 181 -47 229 0 28 -26 37 -36 11z m193 -1419 c-3 -7 0 -19 6
-25 13 -13 3 -26 -12 -16 -14 8 -14 55 0 55 6 0 9 -6 6 -14z"/>
<path d="M6720 7606 c0 -7 7 -19 15 -26 12 -10 16 -9 21 3 3 9 3 21 -1 27 -9
15 -35 12 -35 -4z"/>
<path d="M2162 7580 c0 -14 2 -19 5 -12 2 6 2 18 0 25 -3 6 -5 1 -5 -13z"/>
<path d="M4499 7544 c-33 -17 -54 -42 -45 -52 4 -4 13 0 19 9 7 9 22 19 34 23
11 4 24 13 27 21 6 18 0 18 -35 -1z"/>
<path d="M6030 7524 c-46 -26 -60 -40 -60 -62 0 -9 13 -6 43 9 41 22 77 54 77
71 0 13 -12 10 -60 -18z"/>
<path d="M4999 7535 c-3 -2 -47 -7 -99 -10 -60 -3 -103 -11 -118 -21 -13 -9
-30 -13 -37 -10 -8 3 -40 -4 -71 -14 -32 -11 -64 -20 -71 -20 -8 0 -28 -12
-44 -27 -16 -16 -43 -30 -61 -33 -23 -3 -34 -11 -37 -25 -4 -24 -19 -35 -46
-34 -11 0 -14 3 -7 6 17 7 15 43 -2 43 -11 0 -48 -16 -85 -37 -2 -2 1 -9 8
-17 9 -11 9 -15 -1 -19 -19 -7 -7 -14 35 -22 30 -6 37 -4 37 9 0 12 6 15 24
10 16 -4 25 -1 29 10 4 9 15 16 25 16 10 0 27 9 37 20 10 11 25 20 34 20 29 0
131 53 137 72 7 23 16 23 56 -2 42 -26 58 -25 58 1 0 20 4 21 51 15 43 -6 59
-3 110 21 56 26 84 53 55 53 -7 0 -15 -2 -17 -5z"/>
<path d="M6112 7434 l-37 -35 39 6 c27 5 41 2 47 -7 15 -24 39 21 26 49 -14
32 -31 29 -75 -13z"/>
<path d="M6588 7428 c-31 -11 -35 -20 -13 -38 19 -16 55 -3 55 20 0 25 -10 29
-42 18z"/>
<path d="M5995 7378 c-69 -28 -95 -33 -95 -18 0 7 -10 5 -27 -7 -16 -10 -41
-25 -56 -33 -15 -8 -45 -29 -67 -47 -21 -18 -47 -33 -59 -33 -11 0 -26 -8 -33
-19 -7 -10 -32 -22 -56 -26 -34 -5 -41 -10 -32 -20 6 -7 20 -11 30 -8 29 8 28
-43 -1 -52 -12 -4 -17 -11 -12 -16 10 -10 53 -1 53 12 0 7 77 63 134 96 11 7
23 20 26 29 6 15 37 30 113 54 41 13 144 78 151 95 7 19 -7 18 -69 -7z"/>
<path d="M6767 7326 c-3 -8 -2 -18 3 -21 13 -8 24 15 12 27 -6 6 -11 4 -15 -6z"/>
<path d="M6377 7290 c-14 -11 -32 -20 -40 -20 -8 0 -26 -9 -40 -20 -14 -11
-32 -20 -40 -20 -8 0 -20 -7 -27 -15 -7 -8 -18 -15 -26 -15 -13 0 -73 -55
-106 -97 -9 -12 -35 -27 -57 -33 -23 -6 -41 -16 -41 -22 0 -6 9 -8 23 -3 12 3
36 10 54 15 36 9 118 54 128 71 4 6 17 15 28 20 69 31 143 79 152 97 7 16 15
20 34 15 16 -4 28 -1 35 9 6 8 20 15 31 14 11 -1 22 3 25 8 3 5 -21 10 -52 12
-44 3 -62 -1 -81 -16z"/>
<path d="M8156 7273 c-6 -14 -5 -15 5 -6 7 7 10 15 7 18 -3 3 -9 -2 -12 -12z"/>
<path d="M7631 7266 c-8 -10 -9 -16 -1 -21 5 -3 13 1 16 10 9 22 -1 29 -15 11z"/>
<path d="M2449 7231 c-13 -11 -22 -22 -19 -24 3 -3 16 3 29 14 13 11 22 22 19
25 -3 2 -16 -4 -29 -15z"/>
<path d="M6945 7170 c6 -68 5 -81 -9 -86 -19 -7 -22 -56 -3 -53 32 4 47 -2 47
-20 0 -11 -6 -21 -12 -24 -15 -4 5 -49 35 -79 13 -14 17 -35 17 -85 l0 -67
-77 -73 c-43 -40 -88 -82 -101 -93 -17 -15 -21 -27 -17 -50 5 -26 1 -32 -20
-40 -14 -5 -25 -16 -23 -24 2 -7 -8 -23 -22 -35 -20 -17 -22 -22 -11 -30 22
-14 68 7 75 35 4 13 14 24 22 24 9 0 38 16 64 35 33 25 49 44 54 66 10 52 44
97 77 104 49 11 77 -26 44 -59 -8 -8 -15 -16 -15 -18 0 -2 24 -3 53 -3 52 0
52 0 55 34 2 18 -1 38 -7 44 -6 6 -7 17 -2 26 12 24 23 91 15 91 -4 0 -18 -10
-31 -21 -28 -27 -44 -17 -62 39 -11 32 -10 44 4 79 15 37 15 44 2 70 -8 15
-18 62 -22 104 -6 61 -11 78 -28 88 -17 11 -22 11 -32 -3 -7 -9 -15 -16 -19
-16 -10 0 -7 38 4 45 16 10 -21 75 -43 75 -18 0 -19 -5 -12 -80z"/>
<path d="M8187 7244 c-8 -9 31 -84 43 -84 12 0 60 -101 60 -125 0 -9 14 -28
30 -42 17 -13 30 -31 30 -39 0 -8 10 -28 22 -45 12 -16 23 -40 23 -52 0 -32
32 -34 46 -3 10 20 14 23 25 12 7 -8 12 -32 11 -54 -1 -44 5 -58 22 -47 22 13
5 159 -22 193 -8 11 -13 9 -23 -10 -13 -22 -13 -22 -14 -2 0 12 -20 43 -45 70
-24 27 -45 59 -45 71 0 13 -14 33 -35 49 -19 14 -35 32 -35 38 0 15 -62 76
-76 76 -6 0 -13 -3 -17 -6z"/>
<path d="M4216 7218 c-8 -12 -13 -25 -10 -29 6 -10 34 0 34 11 0 5 3 15 6 24
9 24 -12 19 -30 -6z"/>
<path d="M1900 7178 c-11 -12 -20 -27 -20 -34 0 -12 28 -40 33 -33 1 2 10 13
18 24 9 11 20 30 23 43 6 18 3 22 -13 22 -11 0 -29 -10 -41 -22z"/>
<path d="M4001 7171 c-1 -31 -3 -33 -27 -27 -18 5 -32 2 -45 -9 -24 -23 -14
-47 17 -39 19 5 24 2 24 -13 0 -24 -30 -53 -53 -53 -11 0 -17 8 -17 25 0 20
-5 25 -24 25 -20 0 -25 -6 -30 -45 -5 -31 -12 -45 -23 -45 -8 0 -28 -11 -45
-25 -16 -14 -27 -25 -23 -25 3 0 -10 -15 -30 -32 -62 -58 -37 -79 38 -31 23
15 48 34 55 42 7 9 16 16 20 17 39 5 53 32 27 54 -8 7 -15 16 -15 21 0 17 30
9 42 -11 15 -24 39 -25 95 -4 37 15 42 20 37 40 -4 15 -2 24 5 24 6 0 16 10
21 23 6 12 16 30 22 40 11 14 10 19 -2 27 -8 5 -25 10 -37 10 -14 0 -23 7 -26
23 -3 15 -5 12 -6 -12z"/>
<path d="M4156 7175 c-3 -8 -1 -25 4 -37 10 -26 11 -25 15 20 3 33 -8 44 -19
17z"/>
<path d="M7475 7181 c-3 -6 -15 -11 -26 -11 -10 0 -19 -6 -19 -14 0 -9 7 -12
20 -9 22 6 46 31 37 39 -3 3 -8 1 -12 -5z"/>
<path d="M3734 7160 c-27 -11 -40 -30 -21 -30 8 0 22 9 32 20 20 22 19 23 -11
10z"/>
<path d="M6440 7141 c-25 -9 -76 -33 -115 -53 -38 -19 -85 -39 -102 -43 -18
-3 -33 -10 -33 -14 0 -5 -26 -11 -57 -14 -32 -4 -76 -10 -98 -14 -37 -6 -39
-5 -26 10 12 15 11 17 -8 17 -16 0 -21 -6 -21 -25 0 -19 -6 -26 -27 -31 -16
-3 -37 -9 -48 -14 -11 -4 -49 -19 -85 -33 -194 -76 -315 -130 -358 -162 -27
-19 -59 -35 -72 -35 -12 0 -34 -6 -48 -13 -97 -49 -163 -72 -234 -82 -31 -5
-56 -16 -75 -35 -15 -15 -38 -30 -51 -34 -30 -10 -20 -22 25 -29 35 -6 83 3
124 23 8 4 47 20 85 35 38 15 73 31 79 36 5 5 15 9 23 9 8 0 25 9 39 20 14 11
40 22 59 26 19 3 37 10 40 15 3 5 16 9 28 9 22 0 64 14 133 46 17 8 37 14 45
14 8 0 19 5 25 11 6 6 28 12 49 13 22 1 44 5 49 8 22 13 192 76 225 83 19 4
52 16 72 26 21 11 43 19 49 19 7 0 35 17 63 38 28 21 85 56 126 77 41 22 89
49 106 62 17 13 38 23 46 23 9 0 21 7 28 15 16 19 1 18 -60 -4z"/>
<path d="M7903 7149 c-11 -4 -24 -20 -27 -35 -5 -20 -10 -24 -19 -15 -15 15
-67 14 -71 -1 -2 -7 -9 -30 -16 -51 -17 -54 -5 -62 63 -40 51 16 57 21 57 47
0 27 2 28 35 22 31 -6 35 -4 41 19 12 46 -17 71 -63 54z"/>
<path d="M5399 7104 c-13 -14 -34 -30 -46 -35 -30 -11 -32 -49 -3 -42 11 3 23
9 26 14 3 5 12 9 20 9 9 0 28 12 43 28 23 22 26 30 15 40 -19 17 -28 15 -55
-14z"/>
<path d="M5490 7100 c0 -5 5 -10 10 -10 6 0 10 5 10 10 0 6 -4 10 -10 10 -5 0
-10 -4 -10 -10z"/>
<path d="M4083 7071 c-13 -11 -23 -22 -23 -25 0 -13 28 -5 43 12 32 35 17 43
-20 13z"/>
<path d="M2864 6986 c-53 -54 -94 -111 -94 -131 0 -3 6 -5 14 -5 17 0 76 59
76 76 0 6 7 14 15 17 20 8 68 88 58 97 -4 5 -36 -20 -69 -54z"/>
<path d="M3601 6954 c0 -11 3 -14 6 -6 3 7 2 16 -1 19 -3 4 -6 -2 -5 -13z"/>
<path d="M1775 6952 c-16 -10 -36 -85 -26 -95 8 -8 25 26 35 76 7 29 6 30 -9
19z"/>
<path d="M3555 6941 c-6 -11 9 -23 19 -14 9 9 7 23 -3 23 -6 0 -12 -4 -16 -9z"/>
<path d="M7973 6942 c-12 -2 -27 -10 -34 -18 -10 -12 -9 -19 7 -35 20 -20 20
-20 47 5 40 37 32 57 -20 48z"/>
<path d="M3433 6878 c-30 -15 -29 -28 2 -28 14 0 25 2 25 4 0 2 3 11 6 20 7
18 -2 19 -33 4z"/>
<path d="M1900 6851 c0 -6 5 -13 10 -16 6 -3 10 1 10 9 0 9 -4 16 -10 16 -5 0
-10 -4 -10 -9z"/>
<path d="M3325 6820 c-3 -5 3 -10 14 -10 11 0 23 5 26 10 3 6 -3 10 -14 10
-11 0 -23 -4 -26 -10z"/>
<path d="M2720 6805 c0 -8 -4 -15 -10 -15 -5 0 -10 -7 -10 -15 0 -8 -6 -15
-12 -15 -14 -1 -58 -34 -58 -44 0 -19 40 0 73 34 36 38 48 70 27 70 -5 0 -10
-7 -10 -15z"/>
<path d="M2471 6796 c-14 -17 -9 -46 8 -46 16 0 22 17 13 40 -7 19 -9 20 -21
6z"/>
<path d="M3200 6760 c0 -3 -35 -28 -77 -55 -43 -27 -82 -55 -86 -62 -4 -7 -16
-13 -26 -13 -23 0 -37 -30 -19 -41 13 -8 37 2 84 38 17 12 35 23 39 23 5 0 15
7 24 15 9 8 38 34 65 58 46 42 47 45 22 45 -14 0 -26 -4 -26 -8z"/>
<path d="M3445 6754 c-16 -8 -39 -24 -50 -34 -11 -10 -30 -21 -42 -24 -11 -4
-27 -13 -33 -21 -7 -8 -20 -15 -30 -15 -18 0 -89 -50 -90 -62 0 -11 38 -10 44
1 3 5 35 19 72 32 36 13 75 33 87 45 12 11 39 29 60 39 23 11 37 24 35 33 -4
22 -19 24 -53 6z"/>
<path d="M2500 6740 c0 -6 7 -10 15 -10 8 0 15 2 15 4 0 2 -7 6 -15 10 -8 3
-15 1 -15 -4z"/>
<path d="M8325 6656 c-22 -19 -44 -32 -48 -29 -5 3 -17 -4 -27 -15 -10 -10
-37 -22 -59 -26 -38 -6 -41 -8 -41 -40 0 -45 -30 -71 -79 -67 -25 1 -42 -3
-51 -14 -23 -28 0 -35 70 -24 36 7 72 11 80 10 67 -7 65 -8 61 29 -3 33 -11
44 -36 53 -22 8 19 37 49 36 36 -2 143 28 152 42 3 6 15 4 30 -6 22 -14 24
-14 24 0 0 25 -27 72 -45 79 -28 10 -39 7 -80 -28z"/>
<path d="M2365 6660 c-3 -5 1 -10 10 -10 9 0 13 5 10 10 -3 6 -8 10 -10 10 -2
0 -7 -4 -10 -10z"/>
<path d="M8575 6600 c-4 -6 -11 -8 -16 -5 -5 4 -9 1 -9 -5 0 -6 -16 -26 -35
-46 -19 -19 -35 -43 -35 -53 0 -10 -7 -32 -15 -47 -8 -16 -15 -40 -15 -54 0
-35 -28 -74 -44 -61 -8 7 -23 -1 -51 -28 -22 -21 -46 -36 -52 -34 -7 3 -15 -2
-19 -10 -3 -8 -16 -18 -30 -21 -13 -4 -24 -11 -24 -17 0 -5 -14 -15 -31 -21
-20 -7 -36 -22 -44 -43 -10 -23 -24 -34 -53 -43 -21 -7 -47 -21 -57 -32 -10
-11 -26 -20 -36 -20 -16 0 -37 -35 -27 -45 2 -3 20 -2 39 1 23 4 38 14 45 27
6 16 16 21 36 19 17 -2 31 3 40 16 7 11 29 24 49 30 47 13 79 41 79 69 0 28
36 32 56 6 15 -21 18 -69 5 -78 -6 -3 -24 -36 -41 -73 -18 -37 -36 -69 -40
-72 -4 -3 -25 -38 -46 -78 -22 -41 -48 -91 -59 -111 -22 -42 -54 -82 -122
-153 -24 -26 -42 -52 -39 -57 11 -18 46 2 105 60 32 32 69 60 80 61 12 0 27 1
34 2 6 1 27 20 46 43 18 23 42 45 52 48 10 4 19 12 19 19 0 7 16 30 35 52 19
21 35 46 34 54 0 10 -2 11 -6 3 -9 -25 -23 -13 -17 15 7 31 60 81 87 82 20 0
22 11 5 28 -9 9 -4 27 23 77 41 78 69 89 69 25 0 -37 2 -39 23 -31 18 7 22 16
22 47 0 31 -4 39 -17 38 -10 -1 -18 2 -18 7 0 5 4 9 9 9 5 0 14 20 20 44 6 25
15 48 21 51 5 3 10 16 10 28 0 13 19 43 45 69 49 52 55 68 25 68 -13 0 -20 -7
-20 -19 0 -29 -11 -52 -22 -45 -5 3 -12 -3 -15 -15 -3 -12 -11 -21 -18 -21 -7
0 -18 -7 -25 -15 -7 -8 -21 -15 -31 -15 -28 0 -33 36 -11 84 11 23 24 60 28
82 4 21 13 53 21 71 7 18 13 35 13 38 0 9 -29 5 -35 -5z m-89 -366 c-3 -8 -10
-13 -16 -9 -6 3 -5 16 3 32 9 21 13 23 15 9 2 -9 1 -24 -2 -32z"/>
<path d="M8362 6518 c-5 -7 -13 -23 -16 -35 -4 -11 -13 -27 -21 -33 -8 -7 -15
-21 -15 -31 0 -13 -7 -19 -22 -19 -34 0 -50 -14 -46 -41 3 -23 3 -23 40 10 31
27 43 32 67 26 35 -8 43 9 40 85 -3 51 -9 60 -27 38z"/>
<path d="M2220 6505 c-7 -9 -10 -18 -7 -21 10 -10 47 7 47 22 0 19 -24 18 -40
-1z"/>
<path d="M4800 6506 c0 -9 5 -16 10 -16 6 0 15 -11 20 -25 15 -38 32 -31 28
13 -3 32 -7 37 -30 40 -20 2 -28 -1 -28 -12z"/>
<path d="M2885 6466 c-14 -10 -25 -11 -37 -5 -13 7 -21 4 -34 -16 -9 -14 -25
-25 -35 -25 -11 0 -19 -7 -19 -15 0 -28 80 -9 113 26 16 17 34 29 41 26 6 -3
20 1 31 9 18 13 17 14 -11 14 -17 0 -39 -6 -49 -14z"/>
<path d="M4665 6470 c-3 -5 -1 -10 4 -10 6 0 11 5 11 10 0 6 -2 10 -4 10 -3 0
-8 -4 -11 -10z"/>
<path d="M4608 6463 c7 -3 16 -2 19 1 4 3 -2 6 -13 5 -11 0 -14 -3 -6 -6z"/>
<path d="M7250 6457 c0 -9 -12 -14 -30 -14 -20 0 -36 -7 -46 -21 -8 -11 -21
-27 -29 -35 -18 -18 -9 -27 26 -27 19 0 30 6 34 20 3 11 22 32 41 46 36 28 43
44 19 44 -8 0 -15 -6 -15 -13z"/>
<path d="M4739 6445 c-10 -10 -36 -16 -73 -17 -31 -1 -59 -5 -62 -10 -3 -4
-15 -8 -28 -8 -24 0 -46 -17 -46 -37 0 -21 67 -27 95 -9 13 9 33 16 45 16 11
0 20 3 20 8 0 8 43 28 83 38 26 6 26 7 10 20 -23 17 -26 17 -44 -1z"/>
<path d="M2149 6433 c-1 -5 -1 -11 -1 -15 1 -3 -5 -12 -13 -18 -17 -14 -20
-30 -6 -30 8 0 41 54 41 67 0 7 -20 3 -21 -4z"/>
<path d="M6423 6385 c-3 -9 -3 -18 0 -21 9 -9 48 16 42 27 -9 14 -35 11 -42
-6z"/>
<path d="M4369 6379 c-8 -5 -28 -9 -46 -9 -42 0 -50 -15 -19 -36 31 -19 124
-11 133 12 4 11 9 12 19 3 17 -14 46 5 38 25 -6 16 -103 19 -125 5z"/>
<path d="M4105 6361 c-26 -4 -40 -11 -40 -21 0 -12 11 -14 49 -12 60 4 96 20
75 33 -15 9 -23 9 -84 0z"/>
<path d="M8077 6346 c-4 -9 -18 -16 -31 -16 -17 0 -34 -11 -50 -33 -32 -41
-32 -47 -3 -47 50 0 126 75 100 101 -7 7 -12 6 -16 -5z"/>
<path d="M6621 6328 c-5 -14 -5 -24 1 -27 11 -4 38 31 32 41 -9 15 -25 8 -33
-14z"/>
<path d="M3895 6309 c-16 -10 -39 -19 -51 -19 -11 0 -29 -7 -40 -15 -10 -8
-36 -15 -56 -15 -20 0 -40 -4 -43 -10 -3 -5 -23 -10 -44 -10 -20 0 -46 -7 -57
-15 -10 -8 -29 -15 -41 -15 -14 0 -23 -6 -23 -15 0 -8 -4 -15 -10 -15 -5 0
-10 -4 -10 -8 0 -13 52 -6 64 9 6 8 28 14 51 13 22 0 46 4 53 9 7 5 25 11 41
13 15 2 48 8 72 15 24 6 59 13 77 16 18 3 35 9 38 14 3 5 16 9 30 9 30 0 31
11 2 37 -23 20 -23 20 -53 2z"/>
<path d="M3992 6291 c-11 -7 -11 -9 1 -14 16 -6 27 0 27 15 0 10 -11 10 -28
-1z"/>
<path d="M4246 6293 c-4 -5 -22 -8 -39 -8 -22 0 -32 -5 -32 -15 0 -22 87 -26
109 -5 9 9 14 21 11 26 -7 11 -39 12 -49 2z"/>
<path d="M1962 6254 c-10 -19 -4 -54 9 -54 11 0 29 34 29 54 0 21 -27 20 -38
0z"/>
<path d="M6870 6249 c0 -5 5 -7 10 -4 6 3 10 8 10 11 0 2 -4 4 -10 4 -5 0 -10
-5 -10 -11z"/>
<path d="M7600 6220 c0 -5 -16 -10 -35 -10 -20 0 -42 -8 -52 -18 -37 -37 -107
-54 -130 -31 -14 14 -48 8 -49 -9 -1 -6 -2 -16 -3 -21 0 -5 -9 -12 -19 -15
-10 -4 -36 -22 -58 -41 -21 -19 -43 -35 -48 -35 -5 0 -39 -20 -75 -44 -36 -24
-84 -52 -105 -63 -41 -19 -59 -43 -32 -43 9 0 21 9 28 19 9 15 16 17 25 9 9
-7 21 -3 44 16 17 14 37 26 45 26 8 0 36 15 62 33 26 18 59 39 75 46 15 8 27
21 27 28 0 8 7 21 15 29 13 14 17 14 31 0 19 -20 88 -16 135 8 18 9 40 16 50
16 12 0 24 13 33 34 8 19 24 37 35 41 21 6 30 35 11 35 -5 0 -10 -4 -10 -10z"/>
<path d="M3438 6195 c-3 -3 -3 -17 0 -31 3 -17 9 -23 19 -20 8 3 19 6 24 6 5
0 9 11 9 25 0 20 -5 25 -23 25 -13 0 -26 -2 -29 -5z"/>
<path d="M7685 6180 c-36 -16 -78 -56 -71 -68 12 -20 30 -14 74 24 56 47 54
69 -3 44z"/>
<path d="M3264 6168 c-4 -5 -19 -7 -35 -4 -15 3 -31 1 -34 -4 -3 -6 -23 -10
-45 -10 -24 0 -40 -5 -44 -15 -3 -9 -18 -15 -36 -15 -34 0 -42 -19 -7 -21 57
-4 128 4 198 21 42 10 85 16 96 14 20 -5 51 21 40 33 -11 11 -126 12 -133 1z"/>
<path d="M2667 6143 c-15 -14 -6 -23 23 -23 32 0 40 14 14 24 -20 8 -29 8 -37
-1z"/>
<path d="M2265 6114 c-15 -18 -33 -25 -75 -28 -30 -2 -63 0 -72 5 -22 12 -31
-4 -23 -42 7 -29 8 -30 25 -14 19 17 65 17 148 -1 23 -4 45 -1 72 11 46 21 67
15 80 -20 15 -39 39 -43 68 -10 15 17 38 31 60 34 19 3 37 12 40 20 3 10 -3
12 -25 7 -22 -5 -34 -2 -48 14 -21 24 -55 26 -94 6 -26 -14 -32 -13 -82 13
l-54 28 -20 -23z"/>
<path d="M2850 6130 c0 -5 7 -10 15 -10 8 0 15 5 15 10 0 6 -7 10 -15 10 -8 0
-15 -4 -15 -10z"/>
<path d="M2973 6113 c-7 -3 -13 -9 -13 -14 0 -12 37 -12 44 0 7 11 -14 20 -31
14z"/>
<path d="M2865 6096 c-17 -12 -17 -13 3 -11 26 2 37 11 24 19 -5 3 -17 -1 -27
-8z"/>
<path d="M2693 6088 c-18 -5 -33 -13 -33 -18 0 -12 70 -13 89 -1 24 15 -19 30
-56 19z"/>
<path d="M2795 6089 c-9 -14 -2 -20 14 -10 8 6 9 11 3 15 -6 3 -14 1 -17 -5z"/>
<path d="M1965 6071 c-9 -15 8 -35 24 -30 8 3 7 10 -2 23 -10 14 -16 16 -22 7z"/>
<path d="M7330 6053 c1 -27 1 -27 15 -9 14 19 12 36 -6 36 -5 0 -9 -12 -9 -27z"/>
<path d="M2608 6063 c7 -3 16 -2 19 1 4 3 -2 6 -13 5 -11 0 -14 -3 -6 -6z"/>
<path d="M7902 6040 c-12 -5 -30 -23 -40 -40 -9 -16 -22 -30 -27 -30 -19 0
-88 -52 -77 -59 16 -10 -5 -50 -33 -63 -13 -6 -32 -22 -40 -35 -9 -12 -20 -23
-25 -23 -14 0 -100 -87 -93 -94 13 -13 49 -5 61 14 7 11 18 17 27 14 27 -11
125 76 125 111 0 14 9 26 25 33 14 6 25 16 25 22 0 21 39 53 55 46 12 -4 19 0
22 14 3 11 12 20 19 20 12 0 12 4 2 21 -11 17 -10 22 5 30 38 22 14 37 -31 19z"/>
<path d="M5775 6010 c-3 -5 1 -10 9 -10 9 0 16 5 16 10 0 6 -4 10 -9 10 -6 0
-13 -4 -16 -10z"/>
<path d="M2296 5973 c7 -36 -12 -61 -59 -77 -45 -15 -49 -30 -10 -34 55 -6 85
-23 79 -46 -3 -12 -8 -46 -11 -76 -8 -78 -27 -163 -39 -178 -7 -9 -6 -16 2
-20 6 -4 15 -19 21 -34 17 -45 46 -26 61 40 7 31 17 65 22 74 4 9 4 19 -1 22
-5 3 -12 30 -16 59 -3 28 -11 67 -16 84 -9 27 -7 38 10 62 25 34 26 54 6 71
-8 7 -17 27 -21 46 -3 19 -12 34 -20 34 -9 0 -12 -8 -8 -27z"/>
<path d="M7970 5980 c0 -5 5 -10 10 -10 6 0 10 5 10 10 0 6 -4 10 -10 10 -5 0
-10 -4 -10 -10z"/>
<path d="M2094 5953 c-8 -29 -50 -56 -74 -48 -11 4 -20 11 -20 16 0 5 -7 9
-15 9 -8 0 -15 -7 -15 -15 0 -7 -6 -18 -12 -22 -7 -4 -23 -27 -36 -51 l-24
-42 32 -11 c24 -9 30 -16 28 -33 -6 -40 -102 -33 -143 11 -23 26 -25 26 -44 9
-16 -15 -29 -17 -66 -12 -44 7 -45 8 -30 29 23 33 19 37 -32 37 -53 0 -66 -6
-76 -32 -5 -15 -1 -18 28 -18 70 0 29 -41 -42 -43 -59 -2 -137 29 -128 51 6
16 -11 42 -27 42 -6 0 -23 -14 -39 -31 -22 -23 -40 -32 -67 -34 -20 -1 -50 -9
-67 -17 -16 -8 -48 -19 -70 -22 -42 -8 -85 -30 -85 -45 0 -16 74 -19 99 -4 22
14 25 13 49 -11 22 -22 24 -29 14 -48 -6 -13 -12 -32 -14 -42 -2 -11 -12 -20
-24 -21 -11 -1 -37 -15 -58 -31 -29 -23 -36 -34 -32 -54 2 -14 1 -32 -4 -40
-17 -35 -19 -79 -4 -95 14 -14 14 -16 -3 -22 -18 -7 -33 -22 -33 -35 0 -5 13
-8 29 -8 32 0 43 16 45 70 1 25 6 36 20 38 16 3 18 0 12 -30 -4 -18 -9 -47
-10 -65 -2 -18 -8 -38 -14 -45 -6 -8 -13 -25 -15 -39 -3 -13 -17 -52 -31 -86
-14 -35 -26 -71 -26 -82 0 -11 -4 -22 -9 -25 -5 -3 -12 -18 -16 -33 -3 -14
-15 -37 -25 -51 l-19 -24 -7 27 c-10 38 11 120 52 205 33 70 40 110 19 112 -5
0 -14 -8 -20 -18 -5 -11 -16 -23 -22 -27 -7 -4 -13 -15 -13 -24 0 -23 -40
-103 -51 -103 -23 0 -42 -67 -40 -138 1 -45 -3 -79 -10 -88 -7 -8 -9 -28 -5
-51 4 -21 9 -57 12 -80 4 -24 11 -43 16 -43 6 0 8 -14 6 -31 -4 -24 1 -37 24
-60 16 -16 39 -29 51 -29 33 0 107 -54 107 -78 0 -20 200 -202 221 -202 6 0
28 -13 49 -30 21 -16 44 -30 51 -30 16 0 89 -50 89 -61 0 -4 -9 -11 -20 -14
-11 -3 -20 -13 -20 -21 0 -14 17 -19 52 -16 18 2 182 -80 210 -105 14 -13 20
-12 50 3 47 25 154 23 248 -6 41 -13 80 -27 86 -31 6 -5 33 -5 63 1 28 5 61 6
74 2 30 -11 232 -6 254 7 16 9 15 11 -9 20 -24 9 -138 17 -163 11 -23 -5 -35
1 -35 20 0 33 33 42 97 26 32 -8 83 -14 115 -14 51 1 57 3 61 25 6 30 -3 34
-73 30 -30 -2 -64 1 -75 6 -11 6 -74 11 -140 13 -210 4 -349 15 -360 28 -5 7
-19 16 -30 20 -14 5 -16 9 -7 15 16 10 5 41 -15 41 -8 0 -28 8 -46 17 -22 11
-62 18 -125 19 -84 3 -95 6 -127 31 -21 17 -35 37 -35 50 0 11 -13 32 -29 46
-16 13 -37 39 -46 58 -22 44 -71 87 -110 95 -34 7 -115 60 -115 74 0 5 -17 18
-38 29 -22 11 -46 31 -56 45 -9 14 -23 26 -30 26 -21 0 -26 38 -16 110 5 36 6
76 3 90 -6 22 -4 23 10 12 17 -15 25 -9 82 61 31 39 93 77 124 77 10 0 24 7
31 15 7 8 18 15 26 15 7 0 20 7 28 16 9 8 16 11 16 6 0 -5 8 -9 17 -8 12 1 19
-7 21 -23 3 -20 0 -23 -16 -19 -43 12 -87 -53 -47 -68 17 -7 44 9 93 55 29 27
32 34 20 48 -7 9 -13 19 -13 22 0 3 -11 6 -25 6 -33 0 -36 38 -3 43 13 2 24
13 27 28 4 13 13 24 21 24 8 0 22 11 31 25 9 14 22 25 29 25 7 0 18 6 24 14 7
8 26 18 43 21 24 6 29 11 25 27 -8 30 12 47 40 34 45 -21 26 -74 -43 -121 -30
-21 -54 -44 -54 -52 0 -12 -3 -13 -14 -4 -11 9 -20 4 -45 -24 -31 -36 -33 -55
-5 -55 8 0 13 4 10 8 -3 5 15 19 41 32 30 15 49 33 57 51 6 16 20 32 31 35 11
4 38 19 60 33 51 33 105 50 182 57 55 6 62 4 72 -15 7 -12 9 -26 6 -31 -10
-15 15 -22 32 -8 11 9 51 13 139 13 67 0 125 3 129 7 4 4 0 19 -8 35 -9 15
-21 43 -29 61 -14 34 -17 36 -43 26 -12 -5 -13 -9 -5 -14 9 -6 5 -18 -15 -44
-30 -40 -71 -51 -60 -16 5 16 2 20 -18 20 -14 0 -30 7 -38 16 -11 13 -10 21 6
50 15 28 16 39 6 60 -8 19 -8 36 -1 64 6 22 8 51 4 65 -4 16 0 41 11 65 16 37
17 42 1 74 -22 46 -20 63 10 103 22 29 23 34 8 40 -9 3 -25 24 -35 47 -17 37
-19 39 -25 19z m-518 -308 c4 -10 13 -13 25 -10 18 6 79 -30 79 -47 0 -5 -11
-26 -25 -46 -42 -62 -28 -70 23 -14 32 34 56 52 72 52 12 0 28 8 35 17 11 14
17 15 36 6 13 -6 32 -14 42 -17 17 -5 25 -46 8 -46 -5 0 -26 -16 -47 -36 -22
-19 -58 -44 -81 -55 -23 -11 -48 -28 -55 -38 -8 -11 -35 -29 -61 -42 -26 -13
-47 -29 -47 -36 0 -7 -18 -24 -40 -38 -44 -28 -71 -48 -106 -82 -13 -13 -28
-23 -34 -23 -5 0 -18 -8 -28 -17 -10 -10 -26 -22 -34 -28 -8 -5 -27 -18 -42
-29 -14 -10 -33 -15 -42 -12 -15 6 -15 9 -1 29 9 14 13 35 10 51 -4 19 0 31
12 40 13 9 16 22 13 47 -4 23 -1 40 11 53 12 14 13 20 3 23 -6 3 -10 9 -7 13
3 5 12 7 20 3 9 -3 15 1 15 11 0 10 -6 13 -16 9 -12 -4 -15 0 -12 18 2 16 9
23 20 21 10 -1 25 12 39 35 12 21 39 56 60 78 26 27 39 51 41 75 3 31 7 36 38
41 59 11 70 10 76 -6z m449 -107 c-11 -50 -22 -65 -65 -89 -22 -13 -40 -28
-40 -35 0 -6 -8 -15 -17 -18 -22 -8 -48 -23 -91 -54 -17 -13 -36 -20 -42 -17
-17 10 -11 47 8 52 9 2 24 19 33 36 9 18 26 37 38 43 13 7 28 17 34 23 6 6 23
11 38 11 44 0 59 10 59 39 0 33 7 41 32 41 17 0 19 -5 13 -32z m-815 -88 c8
-15 6 -21 -10 -30 -31 -17 -73 -9 -76 14 -4 29 4 36 41 36 24 0 38 -6 45 -20z
m787 -66 c-3 -3 -12 -4 -19 -1 -8 3 -5 6 6 6 11 1 17 -2 13 -5z m138 -64 c3
-5 -1 -10 -9 -10 -9 0 -16 5 -16 10 0 6 4 10 9 10 6 0 13 -4 16 -10z m-904
-143 c-8 -8 -11 -7 -11 4 0 20 13 34 18 19 3 -7 -1 -17 -7 -23z m649 -1007
c17 -10 16 -12 -27 -34 -47 -24 -73 -21 -73 7 0 13 3 27 7 30 10 10 76 8 93
-3z m336 -109 c5 -5 20 -11 33 -13 14 -1 27 -9 29 -17 4 -11 -4 -13 -39 -7
-43 7 -69 21 -69 37 0 12 33 12 46 0z"/>
<path d="M1559 5442 c-20 -20 -57 -57 -83 -80 -25 -24 -46 -48 -46 -53 0 -17
27 -9 50 16 13 14 29 25 37 25 7 0 13 9 13 20 0 11 6 20 14 20 8 0 18 9 21 20
3 11 12 20 20 20 12 0 25 21 25 41 0 17 -15 9 -51 -29z"/>
<path d="M1388 5279 c-19 -11 -13 -39 8 -39 8 0 14 10 14 25 0 28 1 28 -22 14z"/>
<path d="M5670 5960 c0 -5 4 -10 9 -10 6 0 13 5 16 10 3 6 -1 10 -9 10 -9 0
-16 -4 -16 -10z"/>
<path d="M7227 5952 c-21 -23 -21 -32 -3 -32 20 0 41 29 29 41 -6 6 -15 3 -26
-9z"/>
<path d="M2429 5929 c-42 -42 3 -78 55 -43 34 22 33 40 -4 53 -26 9 -34 7 -51
-10z"/>
<path d="M5523 5910 c-25 -10 -31 -30 -10 -30 27 0 56 13 61 26 6 16 -17 18
-51 4z"/>
<path d="M7125 5898 c3 -7 -9 -21 -26 -30 -16 -10 -27 -23 -24 -28 4 -7 -2 -9
-18 -5 -16 4 -28 2 -34 -7 -4 -7 -24 -22 -43 -32 -19 -11 -47 -29 -62 -40 -15
-12 -43 -32 -63 -46 -59 -41 -95 -71 -95 -81 0 -5 12 -9 28 -9 18 0 49 19 97
60 39 33 81 65 95 72 47 24 110 69 110 79 0 5 9 9 20 9 11 0 25 9 32 20 7 11
18 20 25 20 7 0 13 7 13 15 0 10 -10 15 -30 15 -19 0 -28 -4 -25 -12z"/>
<path d="M6925 5878 c-11 -6 -31 -18 -45 -27 -14 -8 -36 -17 -49 -18 -13 -1
-31 -9 -40 -17 -10 -9 -21 -16 -24 -16 -6 0 -46 -26 -151 -96 -17 -11 -51 -32
-76 -46 -25 -14 -63 -36 -85 -48 -22 -13 -53 -30 -70 -39 -16 -8 -39 -23 -49
-33 -11 -10 -26 -18 -33 -18 -7 0 -13 -5 -13 -10 0 -6 -12 -15 -27 -20 -45
-17 -75 -33 -124 -67 -26 -18 -52 -33 -59 -33 -6 0 -23 -9 -37 -20 -14 -11
-32 -20 -39 -20 -7 0 -22 -12 -34 -27 l-22 -28 22 -3 c12 -2 47 13 81 35 33
21 75 48 95 61 19 12 40 22 47 22 11 0 46 25 90 64 9 9 23 16 31 16 8 0 17 4
20 9 3 4 31 21 63 37 31 16 69 41 84 57 15 15 38 27 51 27 34 0 228 111 228
130 0 4 25 21 56 36 122 63 137 72 146 88 11 19 -6 21 -37 4z"/>
<path d="M5400 5868 c-14 -6 -39 -17 -57 -24 -17 -8 -35 -14 -40 -14 -5 0 -28
-9 -51 -20 -22 -11 -48 -20 -57 -20 -32 0 -150 -43 -170 -61 -19 -19 -19 -19
3 -19 13 0 32 -4 42 -10 30 -16 79 -1 86 26 4 17 13 24 29 24 12 0 36 7 51 15
16 8 38 15 49 15 11 0 38 11 60 25 22 13 47 25 56 25 22 0 79 30 79 41 0 12
-49 10 -80 -3z"/>
<path d="M8015 5810 c-3 -6 -24 -19 -46 -31 -33 -17 -38 -23 -29 -35 15 -17
60 -19 60 -1 0 7 9 18 20 25 21 13 26 37 11 47 -5 3 -12 1 -16 -5z"/>
<path d="M2402 5773 c-4 -10 -5 -36 -2 -58 l5 -40 13 34 c14 41 16 81 2 81 -5
0 -13 -8 -18 -17z"/>
<path d="M2190 5710 c0 -5 5 -10 10 -10 6 0 10 5 10 10 0 6 -4 10 -10 10 -5 0
-10 -4 -10 -10z"/>
<path d="M4913 5702 c-33 -9 -53 -20 -53 -30 0 -10 6 -12 18 -7 9 4 31 11 49
16 29 9 51 26 42 33 -2 1 -28 -4 -56 -12z"/>
<path d="M4766 5671 c-3 -4 1 -16 8 -26 16 -23 46 -13 46 15 0 15 -7 20 -24
20 -14 0 -27 -4 -30 -9z"/>
<path d="M7739 5623 c-13 -16 -12 -17 4 -4 9 7 17 15 17 17 0 8 -8 3 -21 -13z"/>
<path d="M7870 5550 c-6 -12 -37 -32 -68 -47 -155 -70 -199 -92 -211 -107 -7
-9 -19 -16 -25 -16 -17 0 -177 -79 -211 -104 -16 -13 -48 -29 -69 -36 -22 -7
-51 -23 -65 -36 -14 -13 -39 -26 -56 -30 -16 -3 -38 -15 -48 -25 -10 -11 -26
-19 -37 -19 -10 0 -22 -4 -25 -10 -3 -5 -15 -10 -26 -10 -11 0 -31 -7 -44 -16
-14 -9 -25 -13 -25 -9 0 3 -15 -2 -32 -13 -18 -11 -58 -30 -88 -43 -30 -13
-61 -31 -68 -41 -7 -10 -19 -18 -26 -18 -7 0 -35 -16 -62 -35 -27 -19 -53 -35
-57 -35 -12 0 -147 -79 -172 -101 -11 -9 -47 -30 -80 -46 -33 -17 -85 -47
-115 -67 -30 -20 -58 -36 -62 -36 -5 0 -8 -9 -8 -21 0 -14 -10 -24 -32 -32
-18 -6 -37 -10 -42 -9 -5 2 -32 -6 -60 -16 -58 -22 -126 -38 -205 -48 -33 -4
-59 -13 -69 -25 -14 -16 -17 -16 -27 -3 -8 12 -16 13 -35 6 -51 -21 -66 -25
-85 -27 -18 -1 -103 -18 -165 -32 -14 -4 -28 -6 -32 -5 -15 3 4 -27 20 -32 13
-3 12 -4 -3 -4 -25 1 -71 -17 -80 -31 -3 -6 -15 -11 -26 -11 -10 0 -19 -4 -19
-10 0 -12 50 -10 68 3 9 7 18 5 29 -5 14 -14 10 -17 -36 -27 -54 -11 -81 -7
-81 14 0 21 -29 26 -61 10 -16 -9 -29 -19 -29 -24 0 -5 -15 -15 -32 -22 -18
-7 -40 -20 -48 -27 -10 -10 -15 -11 -18 -3 -2 6 -21 11 -43 11 -32 0 -39 3
-39 20 0 20 39 38 59 26 10 -7 80 34 81 47 0 10 -52 8 -70 -3 -13 -9 -13 -11
0 -20 11 -7 2 -8 -30 -4 -43 5 -191 -23 -222 -42 -7 -5 -19 -9 -27 -11 -7 -1
-18 -6 -24 -12 -7 -7 -2 -10 19 -10 16 0 40 0 54 0 14 0 43 1 64 2 79 4 41
-35 -69 -70 -21 -6 -29 -15 -28 -28 2 -30 -34 -49 -88 -46 -26 1 -56 -2 -67
-8 -15 -8 -23 -6 -37 9 -18 19 -65 27 -79 13 -12 -12 -41 -13 -231 -6 -66 2
-149 5 -185 6 -36 2 -70 6 -76 9 -6 4 -27 2 -48 -4 -32 -10 -38 -9 -55 9 -24
25 -71 20 -78 -8 -6 -21 -19 -25 -25 -7 -3 8 -21 0 -52 -20 -36 -24 -54 -31
-70 -25 -23 8 -22 8 -206 23 -160 13 -357 12 -383 -2 -23 -12 -216 3 -340 27
-114 21 -213 29 -221 17 -8 -14 28 -52 49 -52 8 0 15 -4 15 -9 0 -6 15 -7 32
-5 18 3 51 -1 73 -9 22 -8 56 -20 75 -27 50 -18 154 -64 160 -71 3 -3 19 -6
35 -7 55 -3 165 -25 165 -34 0 -10 14 -9 -205 -14 -130 -2 -199 0 -250 11
-129 26 -174 32 -187 24 -7 -4 -10 -9 -8 -11 27 -17 53 -28 67 -28 21 0 86
-23 94 -33 3 -4 70 -12 150 -17 144 -10 233 -23 278 -41 16 -7 28 -6 35 1 5 5
16 10 23 10 17 0 84 66 76 74 -4 3 -14 6 -23 6 -22 0 -40 19 -33 36 3 9 13 12
29 8 13 -4 31 -1 39 6 27 22 86 30 116 14 24 -12 30 -12 43 1 16 17 66 20 66
5 0 -6 11 -3 25 6 28 18 60 12 51 -11 -9 -24 33 -38 111 -38 71 1 96 -8 71
-23 -7 -5 -27 -7 -44 -5 -17 1 -36 -4 -42 -11 -9 -12 5 -13 86 -10 53 2 103 9
109 14 7 6 19 8 27 5 20 -8 86 11 86 25 0 6 11 3 25 -6 17 -11 31 -14 43 -8 9
5 23 7 30 5 6 -3 12 3 12 12 0 14 3 15 14 6 17 -14 39 9 31 31 -5 11 3 15 32
16 21 1 117 4 213 8 117 4 193 3 228 -5 72 -15 202 13 202 44 0 12 21 25 41
25 5 0 9 -7 9 -15 0 -18 21 -20 38 -3 10 10 14 10 21 0 5 -8 21 -12 37 -10 21
2 30 10 34 28 5 23 11 25 71 30 36 3 72 10 80 16 8 6 40 15 72 18 31 4 57 12
57 17 0 5 16 9 35 9 44 0 142 25 172 45 23 16 204 68 233 67 8 0 29 4 45 9 17
5 46 11 65 13 64 8 164 26 235 41 39 8 89 15 111 15 49 0 170 43 200 71 11 10
26 19 32 19 6 0 19 11 28 25 11 17 25 25 44 25 16 0 36 3 45 6 14 6 13 8 -5
21 -16 11 -18 18 -10 34 6 10 17 19 25 19 15 0 28 29 23 51 -2 8 4 14 12 14 9
0 14 -7 12 -17 -2 -10 2 -18 8 -18 5 0 10 5 10 10 0 6 5 10 11 10 7 0 26 16
44 37 26 30 34 34 50 26 10 -6 23 -25 29 -43 6 -20 19 -34 29 -36 29 -4 33
-14 9 -21 -16 -4 -22 -13 -22 -34 0 -34 19 -49 27 -20 9 36 28 25 75 -44 20
-29 42 -79 52 -119 9 -37 28 -90 41 -117 14 -26 25 -59 25 -73 0 -14 4 -27 10
-31 5 -3 9 -25 8 -50 -1 -51 29 -106 67 -123 33 -15 32 -16 38 8 8 31 51 26
72 -7 9 -16 30 -41 45 -58 67 -71 80 -86 80 -93 0 -10 152 -153 179 -169 20
-11 26 -11 33 -1 12 20 10 27 -17 52 -14 13 -25 27 -25 32 0 5 -12 18 -26 31
-14 12 -26 28 -28 35 -3 25 -17 38 -40 38 -27 0 -95 71 -97 101 -1 11 -2 25
-3 32 -1 6 -6 15 -13 20 -6 4 -17 24 -23 45 -7 20 -23 49 -37 63 -33 36 -97
153 -132 241 -9 24 -14 26 -44 21 -34 -5 -34 -5 -71 71 -45 96 -47 120 -8 111
53 -11 64 36 18 74 -10 9 -14 22 -10 37 4 17 -1 30 -20 48 l-27 24 20 38 c18
34 34 46 123 87 57 27 111 53 120 58 10 5 26 9 35 9 10 0 42 22 71 49 29 27
66 52 82 56 16 3 39 14 52 24 13 10 34 22 48 26 14 4 39 18 57 31 17 13 36 24
40 24 12 0 184 86 200 100 7 5 14 10 17 10 10 0 56 48 56 58 0 5 16 24 35 41
19 17 35 35 35 41 0 15 -37 12 -63 -5 -15 -9 -27 -11 -37 -5 -13 9 -13 11 0
20 8 5 22 10 30 10 9 0 24 14 34 30 9 17 31 40 47 52 33 25 38 53 10 68 -28
15 -39 13 -51 -10z m-100 -170 c0 -5 -10 -18 -22 -30 -23 -21 -68 -28 -68 -10
0 6 5 10 11 10 6 0 22 9 36 20 28 22 43 25 43 10z m-890 -685 c3 -22 13 -52
23 -67 39 -58 9 -47 -47 16 -49 56 -56 69 -45 82 7 8 24 14 38 12 22 -3 27 -9
31 -43z m-386 -60 c42 -18 46 -32 11 -45 -14 -5 -25 -14 -25 -20 0 -5 -9 -10
-21 -10 -11 0 -30 -5 -41 -11 -18 -10 -24 -8 -39 12 -23 30 -8 56 41 74 19 7
36 13 36 14 1 0 18 -6 38 -14z m569 -438 c33 -64 36 -107 7 -107 -11 0 -20 7
-20 15 0 9 -9 35 -20 57 -21 43 -25 70 -13 81 13 13 20 6 46 -46z m-3168 -98
c-8 -12 -35 -12 -35 0 0 11 22 20 33 14 4 -2 5 -9 2 -14z m3205 -31 c0 -7 -5
-20 -10 -28 -8 -12 -10 -9 -10 13 0 15 5 27 10 27 6 0 10 -6 10 -12z m-3405
-51 c21 -16 14 -23 -36 -32 -43 -8 -63 10 -34 32 24 17 46 17 70 0z m385 -5
c0 -11 -78 -13 -85 -1 -4 5 13 9 39 9 25 0 46 -4 46 -8z m-323 -8 c-3 -3 -12
-4 -19 -1 -8 3 -5 6 6 6 11 1 17 -2 13 -5z"/>
<path d="M7980 5400 c-52 -54 -103 -102 -114 -106 -12 -4 -15 -9 -8 -16 7 -7
23 -1 50 21 22 17 45 31 51 31 7 0 17 13 22 29 6 17 20 32 32 35 32 8 91 71
84 90 -4 9 -10 16 -14 16 -4 0 -51 -45 -103 -100z"/>
<path d="M7466 5467 c-17 -12 -17 -14 -1 -27 15 -12 19 -12 31 5 8 10 14 22
14 27 0 12 -24 10 -44 -5z"/>
<path d="M3503 5437 c-13 -5 -23 -14 -23 -19 0 -12 48 -10 56 3 11 18 -9 28
-33 16z"/>
<path d="M2798 5387 c-21 -6 -39 -16 -39 -24 -1 -7 -2 -18 -3 -25 0 -7 -14
-12 -31 -13 -23 0 -30 4 -30 20 0 31 -53 33 -76 3 -14 -18 -28 -23 -66 -25
-26 0 -73 -6 -103 -11 -44 -8 -58 -7 -72 5 -15 13 -18 12 -28 -6 -8 -16 -8
-22 2 -26 32 -10 205 -21 225 -14 13 5 157 6 320 3 164 -3 333 -5 377 -4 78 1
116 14 116 37 0 19 -36 25 -108 16 -62 -7 -257 -8 -410 -2 -57 2 -63 4 -60 23
2 12 10 20 17 18 26 -6 71 10 71 24 0 16 -45 17 -102 1z"/>
<path d="M3730 5320 c8 -5 20 -10 25 -10 6 0 3 5 -5 10 -8 5 -19 10 -25 10 -5
0 -3 -5 5 -10z"/>
<path d="M5853 5253 c-24 -13 -43 -29 -43 -34 0 -18 33 -23 45 -6 6 9 24 21
38 26 27 10 38 42 15 40 -7 -1 -32 -12 -55 -26z"/>
<path d="M5740 5180 c0 -5 5 -10 10 -10 6 0 10 5 10 10 0 6 -4 10 -10 10 -5 0
-10 -4 -10 -10z"/>
<path d="M6600 4525 c0 -8 6 -15 14 -15 22 0 28 17 10 24 -22 9 -24 8 -24 -9z"/>
<path d="M6780 4476 c0 -7 7 -19 15 -26 13 -11 15 -8 15 14 0 16 -5 26 -15 26
-8 0 -15 -6 -15 -14z"/>
<path d="M5360 4420 c0 -5 7 -7 15 -4 8 4 15 8 15 10 0 2 -7 4 -15 4 -8 0 -15
-4 -15 -10z"/>
<path d="M5277 4404 c-31 -17 -28 -34 7 -34 27 0 51 24 41 40 -8 13 -14 12
-48 -6z"/>
<path d="M2020 4301 c0 -12 6 -21 16 -21 9 0 14 7 12 17 -5 25 -28 28 -28 4z"/>
<path d="M5120 4311 c0 -11 26 -22 34 -14 3 3 3 10 0 14 -7 12 -34 11 -34 0z"/>
<path d="M2195 4250 c-10 -16 15 -40 41 -40 20 0 44 24 44 44 0 11 -79 6 -85
-4z"/>
<path d="M4800 4179 c0 -5 5 -7 10 -4 6 3 10 8 10 11 0 2 -4 4 -10 4 -5 0 -10
-5 -10 -11z"/>
<path d="M4680 4160 c0 -5 7 -10 15 -10 8 0 15 5 15 10 0 6 -7 10 -15 10 -8 0
-15 -4 -15 -10z"/>
<path d="M2860 3990 c0 -5 5 -10 11 -10 5 0 7 5 4 10 -3 6 -8 10 -11 10 -2 0
-4 -4 -4 -10z"/>
<path d="M7360 3950 c0 -5 7 -10 16 -10 8 0 12 5 9 10 -3 6 -10 10 -16 10 -5
0 -9 -4 -9 -10z"/>
<path d="M3555 3910 c3 -5 15 -10 26 -10 11 0 17 5 14 10 -3 6 -15 10 -26 10
-11 0 -17 -4 -14 -10z"/>
<path d="M7120 3873 c1 -26 35 -63 59 -63 12 0 21 -4 21 -9 0 -4 10 -19 23
-33 12 -14 36 -42 54 -62 52 -58 88 -42 60 27 -10 23 -28 41 -51 52 -20 10
-47 29 -59 44 -23 25 -79 61 -98 61 -5 0 -9 -8 -9 -17z"/>
<path d="M7516 3617 c-10 -39 -7 -70 11 -89 16 -17 15 -20 -17 -53 -27 -28
-32 -39 -27 -64 8 -36 -23 -115 -47 -124 -9 -4 -16 -18 -16 -32 0 -28 -18 -66
-37 -78 -7 -4 -13 -12 -13 -18 0 -10 -63 -103 -91 -135 -11 -11 -19 -25 -19
-30 0 -6 -19 -33 -42 -62 -24 -28 -59 -73 -78 -99 -19 -26 -51 -64 -71 -84
-50 -49 -59 -69 -59 -129 0 -47 -4 -55 -41 -93 -40 -41 -52 -61 -83 -145 -21
-55 -20 -72 3 -72 20 0 91 80 91 103 0 8 18 31 39 50 63 56 80 104 41 114 -23
6 -27 38 -7 50 7 4 21 19 30 33 10 14 37 47 62 75 86 97 125 146 125 159 0 8
7 19 16 27 8 7 31 38 51 68 20 31 56 86 80 123 24 36 64 106 88 154 25 49 54
96 66 105 18 13 21 27 23 105 3 100 -4 124 -44 147 -27 16 -28 16 -34 -6z"/>
<path d="M2400 3574 c0 -22 2 -25 15 -14 12 10 13 16 4 26 -16 20 -19 18 -19
-12z"/>
<path d="M2470 3464 c0 -5 7 -19 15 -30 8 -10 15 -30 15 -44 1 -14 4 -19 7
-12 2 6 16 12 29 12 27 0 28 3 14 31 -6 11 -21 19 -35 19 -13 0 -29 8 -34 18
-6 9 -11 12 -11 6z"/>
<path d="M2520 3315 c0 -8 5 -15 10 -15 6 0 10 7 10 15 0 8 -4 15 -10 15 -5 0
-10 -7 -10 -15z"/>
<path d="M2552 3237 c6 -48 134 -319 170 -357 12 -13 18 -35 18 -70 0 -47 2
-52 28 -61 42 -14 172 -210 172 -259 0 -14 9 -33 20 -43 11 -9 20 -27 20 -40
0 -22 10 -36 71 -103 10 -12 19 -26 19 -31 0 -9 58 -80 107 -130 26 -27 51
-30 60 -7 8 21 -14 91 -35 112 -40 40 -64 84 -59 107 3 17 -1 26 -12 30 -9 3
-47 35 -85 71 -66 62 -69 67 -51 80 12 9 14 14 6 14 -22 0 -40 32 -41 70 0 19
-9 49 -20 65 -11 17 -25 48 -31 70 -6 22 -22 54 -35 72 -13 17 -24 39 -24 47
0 9 -14 23 -31 31 -16 9 -34 26 -38 38 -5 12 -17 22 -27 22 -14 0 -20 8 -22
33 -2 17 -7 32 -12 32 -5 0 -8 19 -7 43 2 40 1 42 -26 40 -27 -2 -56 26 -61
61 -1 8 -14 26 -29 40 -15 14 -27 32 -27 40 0 8 -5 18 -11 22 -9 5 -10 -6 -7
-39z"/>
<path d="M5110 2455 c0 -10 7 -15 18 -13 21 4 19 22 -2 26 -10 2 -16 -3 -16
-13z"/>
<path d="M5050 2425 c0 -9 5 -15 11 -13 6 2 11 8 11 13 0 5 -5 11 -11 13 -6 2
-11 -4 -11 -13z"/>
<path d="M6000 2359 c-113 -20 -163 -36 -270 -82 -100 -44 -128 -52 -219 -60
-66 -7 -113 -7 -130 -1 -49 18 -342 5 -381 -17 -14 -7 -52 -23 -85 -35 -33
-11 -59 -25 -58 -30 1 -5 4 -17 8 -26 4 -11 -7 -30 -34 -60 -23 -23 -41 -46
-41 -50 0 -12 40 4 65 28 14 13 30 24 35 24 4 0 17 11 27 25 13 18 36 30 78
41 33 8 68 19 78 25 13 7 23 7 34 -2 12 -10 21 -10 46 3 18 9 50 19 72 22 44
6 195 -19 237 -39 31 -15 62 -10 99 17 14 11 53 24 87 31 46 8 62 16 62 28 0
20 27 44 60 53 14 4 41 12 60 17 30 9 78 16 200 31 38 5 32 -25 -7 -33 -18 -3
-44 -14 -57 -23 -14 -8 -27 -12 -30 -7 -8 12 -79 -5 -129 -31 -23 -12 -46 -23
-52 -23 -5 -1 -16 -3 -23 -3 -7 -1 -17 -13 -22 -27 -11 -29 -58 -61 -112 -75
-28 -8 -39 -17 -44 -36 -10 -38 14 -58 52 -44 16 7 46 9 67 6 41 -7 82 8 292
109 61 29 121 56 135 60 14 4 34 13 45 19 30 19 63 27 135 32 35 2 69 9 74 14
6 6 20 10 32 10 12 0 27 6 33 14 9 11 5 15 -19 19 -24 5 -30 11 -30 33 l0 27
-108 -6 c-60 -4 -116 -9 -125 -13 -12 -4 -20 2 -27 20 -10 28 -27 31 -110 15z"/>
<path d="M6590 2305 c0 -7 5 -17 10 -20 6 -3 10 -15 10 -25 0 -24 18 -36 33
-21 9 9 8 15 -5 22 -10 6 -18 18 -18 28 0 11 -7 21 -15 25 -9 3 -15 0 -15 -9z"/>
<path d="M3360 2278 c0 -20 53 -122 84 -163 27 -34 31 -48 33 -105 1 -36 5
-90 8 -120 7 -54 -1 -114 -30 -215 -8 -27 -16 -63 -17 -80 -2 -21 -11 -34 -30
-43 -32 -15 -35 -27 -12 -49 10 -10 13 -24 9 -37 -4 -12 -9 -35 -12 -53 -3
-19 -15 -39 -30 -48 -17 -12 -22 -20 -15 -27 6 -6 8 -17 5 -24 -3 -7 2 -21 11
-29 9 -9 19 -28 22 -43 10 -46 14 -53 24 -47 5 3 10 15 10 26 0 27 33 21 38
-6 5 -24 31 -55 46 -55 7 0 13 23 14 57 2 40 8 64 21 76 21 21 88 39 97 26 8
-14 36 -10 56 8 18 16 18 17 -2 38 -17 18 -19 27 -10 49 8 21 7 28 -5 32 -8 3
-20 2 -27 -2 -22 -14 -66 -14 -77 0 -17 20 48 75 81 69 28 -5 53 19 44 42 -3
9 -19 18 -36 21 -43 9 -53 26 -44 76 5 24 8 50 7 58 -1 8 5 37 13 63 12 36 13
52 5 60 -27 27 1 38 30 12 15 -14 18 -14 33 1 16 15 16 18 -2 38 -34 37 -34
55 -4 86 21 20 26 33 20 44 -11 19 -107 66 -136 66 -12 0 -36 16 -53 35 -18
19 -38 35 -46 35 -7 0 -13 8 -13 19 0 10 -8 29 -18 42 -10 13 -23 36 -30 52
-8 19 -19 27 -37 27 -14 0 -25 -5 -25 -12z m280 -908 c0 -11 -4 -20 -9 -20
-11 0 -22 26 -14 34 12 12 23 5 23 -14z"/>
<path d="M6820 2126 c0 -22 -17 -28 -41 -15 l-22 11 8 -96 7 -96 -39 0 c-57 1
-64 9 -121 140 l-11 25 0 -27 c-1 -15 -5 -30 -11 -33 -5 -3 -10 -28 -10 -54 0
-51 -30 -106 -92 -173 -23 -25 -31 -29 -38 -18 -5 8 -3 25 6 41 16 33 18 59 4
59 -5 0 -10 -6 -10 -14 0 -7 -7 -19 -15 -26 -9 -8 -15 -30 -15 -56 0 -33 -5
-47 -20 -56 -11 -7 -20 -18 -20 -25 0 -23 -28 -13 -34 12 -7 29 -26 34 -26 6
0 -12 -15 -26 -45 -40 -25 -12 -48 -21 -52 -21 -3 0 -14 -7 -24 -16 -16 -14
-21 -14 -56 4 -29 14 -46 17 -73 10 -41 -9 -160 0 -178 15 -9 7 -10 13 0 24
19 23 63 42 85 37 11 -3 25 1 32 10 8 9 17 16 22 16 4 0 19 11 33 25 13 13 37
27 53 30 61 14 133 50 133 67 0 10 16 26 38 37 21 11 44 27 51 35 8 9 21 16
30 16 9 0 34 20 56 45 34 38 45 45 77 45 34 0 38 3 38 25 0 27 -24 35 -34 10
-8 -21 -56 -19 -72 3 -12 16 -14 16 -41 -1 -49 -32 -190 -97 -210 -97 -10 0
-29 -8 -43 -17 -13 -9 -48 -20 -77 -24 -29 -4 -87 -23 -127 -43 -40 -20 -76
-36 -80 -36 -3 0 -35 -13 -69 -30 -35 -16 -68 -30 -74 -30 -14 0 -172 -82
-215 -112 -55 -38 -104 -48 -399 -78 -53 -5 -108 -14 -121 -19 -16 -6 -32 -5
-48 4 -18 10 -50 12 -115 8 -129 -9 -284 -6 -298 5 -15 11 -128 13 -142 1 -6
-4 -26 -8 -45 -8 -109 1 -195 -3 -205 -9 -5 -4 -44 -8 -86 -9 -41 -1 -94 -6
-116 -12 -60 -16 -71 -62 -15 -60 26 1 139 -24 147 -33 3 -2 6 -15 7 -27 4
-29 -31 -50 -112 -70 -54 -14 -90 -30 -90 -42 0 -3 42 -3 93 -1 150 7 296 -2
312 -20 7 -8 5 -9 -7 -5 -12 4 -18 1 -18 -8 0 -8 -10 -17 -22 -19 -13 -3 -47
-10 -77 -16 -73 -14 -107 -60 -45 -60 24 0 24 -1 8 -17 -15 -16 -44 -23 -164
-39 -25 -4 -51 -11 -59 -17 -7 -6 -22 -16 -34 -22 -11 -5 -22 -16 -25 -23 -3
-10 13 -12 75 -7 43 4 83 11 89 16 7 5 31 7 54 3 23 -4 37 -10 31 -14 -7 -4
-2 -12 13 -20 20 -10 28 -11 40 -1 8 7 20 10 26 6 13 -8 13 -48 0 -61 -6 -6
-8 -18 -4 -28 6 -16 8 -16 28 2 29 26 86 57 119 66 15 3 27 13 27 21 0 9 10
15 25 15 16 0 25 -6 25 -15 0 -8 -4 -15 -10 -15 -5 0 -10 -7 -10 -15 0 -7 -8
-19 -17 -24 -16 -9 -14 -10 9 -11 17 0 31 7 38 20 6 11 19 20 30 20 24 0 36
18 21 33 -9 9 -14 8 -21 -3 -8 -13 -10 -13 -10 1 0 9 14 22 33 30 32 13 46 27
44 43 -2 9 67 32 128 43 30 5 29 4 -20 -46 -32 -32 -59 -51 -74 -51 -24 0 -71
-45 -71 -67 0 -21 16 -15 47 16 27 27 51 35 136 48 22 3 37 11 37 19 0 8 9 14
20 14 24 0 92 31 105 48 12 15 86 27 111 18 13 -5 14 -9 4 -21 -11 -13 -7 -15
23 -15 19 0 37 5 39 10 5 16 421 17 426 2 5 -17 22 -15 22 2 0 7 -9 16 -21 19
-13 4 -18 10 -14 17 5 9 26 10 69 6 33 -4 76 -7 94 -6 17 0 32 -4 32 -9 0 -5
17 -11 38 -15 58 -8 142 -23 202 -34 85 -16 170 -22 170 -11 0 5 -7 9 -14 9
-8 0 -36 14 -61 31 -65 44 -49 57 52 40 300 -50 401 -81 413 -130 9 -37 26
-36 44 4 13 27 16 53 12 108 -2 40 -7 79 -11 88 -3 9 0 23 7 30 24 24 28 48
12 57 -42 23 35 78 95 67 32 -6 33 -8 21 -40 -6 -15 -7 -32 -2 -39 5 -6 16
-31 24 -56 17 -50 18 -194 0 -212 -13 -13 6 -88 25 -95 8 -3 21 4 29 16 19 26
40 27 56 1 17 -27 34 -25 64 8 19 21 23 34 19 60 -4 18 -2 47 4 65 5 18 15 51
22 75 7 24 24 53 38 64 l26 20 1 196 c0 131 5 215 14 249 11 44 11 65 0 130
-7 43 -16 109 -19 147 -4 42 -11 71 -18 74 -7 2 -13 -3 -13 -12z m-65 -390
c-2 -6 -6 -23 -9 -38 -8 -35 -26 -37 -26 -3 0 34 21 79 31 64 4 -7 6 -17 4
-23z m-215 -41 c0 -8 -4 -15 -9 -15 -5 0 -7 -10 -4 -22 3 -13 2 -20 -2 -15 -5
4 -17 0 -26 -9 -17 -16 -19 -15 -25 0 -4 11 3 27 22 47 31 32 44 37 44 14z
m-660 -70 c0 -9 -44 -23 -54 -18 -4 3 -2 9 5 14 15 10 49 12 49 4z m150 -26
c0 -5 -7 -9 -15 -9 -15 0 -20 12 -9 23 8 8 24 -1 24 -14z m-908 -12 c12 -20
-80 -49 -127 -40 -22 4 -52 6 -67 5 -14 -2 -29 1 -32 7 -10 16 34 34 104 42
73 7 111 3 122 -14z m1388 -12 c10 -13 9 -19 -6 -38 -46 -53 -74 -61 -74 -20
0 28 34 73 56 73 6 0 17 -7 24 -15z m-1782 -22 c5 -17 -26 -29 -40 -15 -6 6
-7 15 -3 22 9 14 37 9 43 -7z m2046 -24 c6 -40 -10 -119 -25 -119 -19 0 -29
125 -13 151 13 22 32 6 38 -32z m-436 0 c5 -26 -50 -88 -78 -89 -31 0 -60 -43
-60 -88 0 -26 -4 -30 -37 -35 -20 -4 -76 0 -124 9 -48 8 -104 14 -125 13 -56
-2 -145 12 -176 27 -15 8 -44 14 -64 14 -20 0 -62 12 -92 26 -47 22 -53 28
-40 40 15 15 125 31 273 40 49 3 101 12 115 19 15 7 58 12 108 11 46 -1 86 2
89 7 3 5 10 6 17 4 6 -2 43 1 81 7 86 15 109 13 113 -5z m-18 -208 c0 -23 -58
-73 -68 -58 -4 7 -16 12 -26 12 -11 0 -21 6 -24 14 -3 10 1 12 16 9 14 -4 29
3 47 22 28 30 55 30 55 1z m440 -46 c5 -66 -1 -82 -40 -123 -44 -45 -56 -52
-45 -24 4 9 11 33 15 52 8 33 20 72 42 130 8 20 11 22 18 10 4 -8 9 -28 10
-45z"/>
<path d="M5468 2068 c-6 -14 -19 -18 -53 -18 -46 0 -54 -7 -34 -27 9 -9 8 -18
-4 -37 -14 -21 -14 -25 -1 -30 21 -8 106 82 102 109 -3 18 -4 18 -10 3z"/>
<path d="M3793 1995 c-8 -9 -9 -16 -3 -20 6 -3 10 -15 10 -26 0 -10 5 -20 10
-20 6 -1 22 -3 38 -5 117 -13 141 -25 103 -53 -40 -31 -18 -43 73 -41 81 2
276 -6 351 -14 52 -5 153 -50 161 -71 8 -19 0 -30 -15 -20 -6 3 -73 8 -148 11
-127 4 -388 14 -457 17 -39 3 -43 -16 -9 -38 23 -15 56 -20 186 -24 87 -3 168
-2 180 2 12 5 132 5 267 2 339 -10 350 -11 392 -28 37 -16 38 -16 58 14 12 16
28 29 36 29 25 0 28 30 5 46 -14 10 -20 22 -16 34 6 20 -27 30 -97 30 -31 0
-49 7 -75 30 -27 24 -43 30 -81 30 -26 0 -67 10 -92 21 -52 24 -208 44 -300
39 -27 -1 -94 8 -190 26 -79 14 -176 22 -307 24 -12 0 -25 5 -28 10 -9 14 -38
12 -52 -5z m315 -87 c48 -12 99 -47 71 -49 -48 -3 -118 3 -142 13 -26 10 -27
12 -11 29 20 22 21 22 82 7z"/>
<path d="M5185 1813 c-35 -8 -37 -20 -9 -42 34 -27 47 -26 84 1 43 32 39 48
-12 47 -24 -1 -52 -3 -63 -6z"/>
<path d="M5080 1801 c0 -6 5 -13 10 -16 6 -3 10 1 10 9 0 9 -4 16 -10 16 -5 0
-10 -4 -10 -9z"/>
<path d="M3820 1560 c0 -5 4 -10 9 -10 6 0 13 5 16 10 3 6 -1 10 -9 10 -9 0
-16 -4 -16 -10z"/>
<path d="M3760 1368 l-25 -10 23 -9 c26 -10 76 6 67 21 -8 12 -32 12 -65 -2z"/>
<path d="M5417 1183 c-10 -9 12 -43 28 -43 8 0 22 -11 31 -25 25 -39 94 -85
127 -85 16 0 41 -8 55 -19 15 -10 41 -21 57 -24 17 -3 68 -13 115 -22 47 -9
92 -20 101 -25 21 -11 218 -56 329 -75 47 -8 110 -21 140 -28 80 -19 115 -6
72 25 -10 7 -21 20 -24 28 -7 20 -41 35 -113 51 -64 13 -92 24 -112 44 -7 7
-53 16 -103 20 -49 4 -93 11 -96 16 -3 5 -18 9 -33 9 -15 0 -59 12 -97 26 -38
15 -89 28 -114 29 -31 2 -49 9 -61 24 -10 12 -28 21 -42 21 -14 0 -38 7 -53
15 -16 8 -36 15 -44 15 -9 0 -20 4 -25 9 -12 10 -130 23 -138 14z"/>
<path d="M6302 1118 c-18 -18 -14 -28 8 -28 11 0 20 6 20 14 0 21 -15 27 -28
14z"/>
<path d="M4580 1061 c-8 -4 -25 -13 -37 -19 -13 -7 -33 -12 -47 -12 -13 0 -29
-6 -35 -14 -6 -8 -45 -22 -86 -31 -41 -10 -80 -24 -86 -31 -6 -8 -21 -14 -33
-14 -11 0 -39 -16 -60 -35 -22 -19 -47 -35 -55 -35 -9 0 -21 -8 -28 -19 -6
-10 -42 -34 -79 -52 -37 -19 -83 -49 -102 -66 -19 -18 -43 -33 -53 -33 -10 0
-23 -9 -29 -20 -6 -11 -17 -20 -25 -20 -23 0 -89 49 -104 78 -17 34 -61 73
-72 66 -15 -9 -49 6 -49 22 0 8 5 14 10 14 6 0 10 7 10 16 0 13 -7 15 -28 11
-31 -6 -42 -1 -58 27 -6 11 -17 23 -25 26 -21 11 -81 31 -106 37 -40 9 -28
-34 27 -97 28 -32 50 -63 50 -70 0 -7 7 -10 16 -6 19 7 58 -35 41 -46 -6 -4 5
-14 26 -24 20 -10 37 -23 37 -30 0 -7 9 -15 19 -19 11 -3 26 -16 34 -28 24
-36 80 -92 110 -110 27 -17 27 -17 27 8 0 20 5 25 24 25 13 0 26 -5 28 -11 2
-5 10 -7 19 -4 11 4 14 15 11 35 -5 35 31 100 56 100 9 0 31 9 47 20 17 11 37
20 46 20 8 0 30 11 48 24 26 19 41 23 68 19 35 -6 35 -6 28 26 -4 20 -3 31 4
31 6 0 11 9 11 20 0 11 7 20 15 20 8 0 15 4 15 8 0 5 19 15 43 22 23 8 49 20
59 27 11 10 18 11 23 3 7 -11 -11 -40 -25 -40 -5 0 -24 -16 -42 -34 l-35 -35
26 -3 c21 -2 26 -8 24 -28 -3 -47 6 -58 28 -31 20 24 25 42 12 40 -20 -3 -24
2 -13 16 7 8 20 15 30 15 9 0 27 9 40 20 12 11 30 22 40 25 10 3 25 17 34 30
9 14 21 25 27 25 5 0 35 16 65 35 48 31 55 39 50 60 -3 13 -2 27 4 30 12 7 14
25 3 24 -5 0 -15 -4 -23 -8z m-896 -322 c-4 -6 -11 -6 -20 2 -21 17 -17 31 6
19 11 -6 18 -15 14 -21z"/>
<path d="M4258 1013 c7 -3 16 -2 19 1 4 3 -2 6 -13 5 -11 0 -14 -3 -6 -6z"/>
<path d="M4006 944 c-50 -51 -26 -59 47 -15 37 22 45 30 32 35 -31 11 -52 6
-79 -20z"/>
<path d="M6566 954 c-21 -21 -20 -34 3 -34 22 0 45 25 36 40 -9 14 -21 13 -39
-6z"/>
<path d="M4245 720 c3 -5 8 -10 11 -10 2 0 4 5 4 10 0 6 -5 10 -11 10 -5 0 -7
-4 -4 -10z"/>
</g>
</svg>
